<svg width="16" height="16" viewBox="0 0 16 16" fill="none" xmlns="http://www.w3.org/2000/svg">
<path d="M5.47332 3.52668C5.41084 3.58865 5.36124 3.66239 5.32739 3.74363C5.29355 3.82487 5.27612 3.912 5.27612 4.00001C5.27612 4.08802 5.29355 4.17516 5.32739 4.2564C5.36124 4.33764 5.41084 4.41137 5.47332 4.47334L8.52665 7.52668C8.58914 7.58865 8.63874 7.66239 8.67258 7.74363C8.70643 7.82487 8.72385 7.912 8.72385 8.00001C8.72385 8.08802 8.70643 8.17516 8.67258 8.2564C8.63874 8.33763 8.58914 8.41137 8.52666 8.47334L5.47332 11.5267C5.41084 11.5887 5.36124 11.6624 5.32739 11.7436C5.29355 11.8249 5.27612 11.912 5.27612 12C5.27612 12.088 5.29355 12.1752 5.32739 12.2564C5.36124 12.3376 5.41084 12.4114 5.47332 12.4733C5.59823 12.5975 5.7672 12.6672 5.94332 12.6672C6.11945 12.6672 6.28841 12.5975 6.41332 12.4733L9.47332 9.41334C9.84786 9.03834 10.0582 8.53001 10.0582 8.00001C10.0582 7.47001 9.84786 6.96168 9.47332 6.58668L6.41332 3.52668C6.28841 3.40251 6.11945 3.33282 5.94332 3.33282C5.7672 3.33282 5.59823 3.40251 5.47332 3.52668Z" fill="#1997CE"/>
</svg>
