<svg width="16" height="16" viewBox="0 0 16 16" fill="none" xmlns="http://www.w3.org/2000/svg">
<path d="M15.0365 3.80574C15.0186 3.69238 14.8367 2.67408 14.0989 1.93053C13.3579 1.20555 12.3358 1.02623 12.2218 1.0083C12.07 0.983321 11.915 1.01534 11.785 1.09604C11.7094 1.14279 9.89312 2.28021 6.20547 5.9416C2.32249 9.79769 1.30419 11.3386 1.26256 11.402C1.20428 11.4917 1.16906 11.5948 1.16073 11.7011L0.956431 14.3083C0.942341 14.4953 1.00959 14.6785 1.14216 14.8111C1.26256 14.9315 1.42587 14.9987 1.59559 14.9987C1.6116 14.9987 1.62825 14.9987 1.6449 14.9968L4.27135 14.7944C4.37702 14.7861 4.47885 14.7521 4.56787 14.6951C4.63191 14.6541 6.1837 13.6429 10.066 9.78808C13.7543 6.12605 14.9001 4.32193 14.9475 4.247C15.0294 4.11571 15.0615 3.9588 15.0371 3.80574H15.0365ZM9.16366 8.8793C6.0063 12.0143 4.42825 13.2215 3.99916 13.5308L2.29239 13.6627L2.42432 11.9771C2.73941 11.5467 3.95689 9.97958 7.10721 6.85103C8.0826 5.88268 8.9235 5.09558 9.63182 4.46283C9.63823 4.46411 9.64463 4.46539 9.65168 4.46667C9.65936 4.46795 10.4439 4.60373 10.946 5.0943C11.4404 5.57783 11.5794 6.33035 11.5832 6.34892C11.5832 6.35149 11.5845 6.35341 11.5845 6.35597C10.9447 7.06237 10.1467 7.90327 9.16366 8.8793ZM12.5638 5.23904C12.4107 4.89705 12.1814 4.51022 11.842 4.17847C11.5064 3.84993 11.1157 3.62706 10.7699 3.47847C11.4993 2.87006 11.9918 2.50757 12.2487 2.3276C12.517 2.40702 12.9205 2.56905 13.1972 2.83996C13.4873 3.132 13.6423 3.53227 13.7159 3.78076C13.5334 4.03694 13.1709 4.52303 12.5644 5.23968L12.5638 5.23904Z" fill="#2E3032"/>
</svg>
