<svg width="16" height="16" viewBox="0 0 16 16" fill="none" xmlns="http://www.w3.org/2000/svg">
<path d="M13.3999 3.20003H11.5399C11.4007 2.52288 11.0322 1.91445 10.4967 1.47727C9.96115 1.0401 9.29127 0.800922 8.59996 0.800049L7.39996 0.800049C6.70864 0.800922 6.03876 1.0401 5.50323 1.47727C4.96769 1.91445 4.59924 2.52288 4.45998 3.20003H2.6C2.44087 3.20003 2.28826 3.26325 2.17573 3.37577C2.06321 3.48829 2 3.6409 2 3.80003C2 3.95916 2.06321 4.11177 2.17573 4.22429C2.28826 4.33681 2.44087 4.40002 2.6 4.40002H3.19999V12.2C3.20094 12.9953 3.51732 13.7578 4.07972 14.3202C4.64212 14.8826 5.40462 15.199 6.19997 15.1999H9.79995C10.5953 15.199 11.3578 14.8826 11.9202 14.3202C12.4826 13.7578 12.799 12.9953 12.7999 12.2V4.40002H13.3999C13.5591 4.40002 13.7117 4.33681 13.8242 4.22429C13.9367 4.11177 13.9999 3.95916 13.9999 3.80003C13.9999 3.6409 13.9367 3.48829 13.8242 3.37577C13.7117 3.26325 13.5591 3.20003 13.3999 3.20003ZM7.39996 2.00004H8.59996C8.97212 2.00049 9.33503 2.11607 9.63892 2.3309C9.94281 2.54574 10.1728 2.84933 10.2973 3.20003H5.70257C5.82712 2.84933 6.05711 2.54574 6.361 2.3309C6.66489 2.11607 7.0278 2.00049 7.39996 2.00004ZM11.5999 12.2C11.5999 12.6774 11.4103 13.1352 11.0727 13.4728C10.7352 13.8103 10.2773 14 9.79995 14H6.19997C5.72258 14 5.26475 13.8103 4.92719 13.4728C4.58962 13.1352 4.39998 12.6774 4.39998 12.2V4.40002H11.5999V12.2Z" fill="#FF004D"/>
<path d="M6.80019 11.6C6.95932 11.6 7.11193 11.5368 7.22445 11.4243C7.33697 11.3118 7.40019 11.1591 7.40019 11V7.40004C7.40019 7.24092 7.33697 7.0883 7.22445 6.97578C7.11193 6.86326 6.95932 6.80005 6.80019 6.80005C6.64106 6.80005 6.48845 6.86326 6.37593 6.97578C6.26341 7.0883 6.2002 7.24092 6.2002 7.40004V11C6.2002 11.1591 6.26341 11.3118 6.37593 11.4243C6.48845 11.5368 6.64106 11.6 6.80019 11.6Z" fill="#FF004D"/>
<path d="M9.19961 11.6C9.35873 11.6 9.51135 11.5368 9.62387 11.4243C9.73639 11.3118 9.7996 11.1591 9.7996 11V7.40004C9.7996 7.24092 9.73639 7.0883 9.62387 6.97578C9.51135 6.86326 9.35873 6.80005 9.19961 6.80005C9.04048 6.80005 8.88787 6.86326 8.77534 6.97578C8.66282 7.0883 8.59961 7.24092 8.59961 7.40004V11C8.59961 11.1591 8.66282 11.3118 8.77534 11.4243C8.88787 11.5368 9.04048 11.6 9.19961 11.6Z" fill="#FF004D"/>
</svg>
