<svg width="16" height="16" viewBox="0 0 16 16" fill="none" xmlns="http://www.w3.org/2000/svg">
<path d="M12.0833 8.00008C12.0833 8.8055 12.7363 9.45841 13.5417 9.45841C14.3471 9.45842 15 8.8055 15 8.00008C15 7.19467 14.3471 6.54175 13.5417 6.54175C12.7363 6.54175 12.0833 7.19467 12.0833 8.00008Z" fill="#2E3032"/>
<path d="M6.54165 8.00008C6.54165 8.8055 7.19456 9.45841 7.99998 9.45841C8.80539 9.45842 9.45831 8.8055 9.45831 8.00008C9.45831 7.19467 8.80539 6.54175 7.99998 6.54175C7.19456 6.54175 6.54165 7.19467 6.54165 8.00008Z" fill="#2E3032"/>
<path d="M1.00002 8.00008C1.00002 8.8055 1.65294 9.45841 2.45835 9.45841C3.26377 9.45842 3.91669 8.8055 3.91669 8.00008C3.91669 7.19467 3.26377 6.54175 2.45835 6.54175C1.65294 6.54175 1.00002 7.19467 1.00002 8.00008Z" fill="#2E3032"/>
</svg>
