<svg width="16" height="16" viewBox="0 0 16 16" fill="none" xmlns="http://www.w3.org/2000/svg">
<path fill-rule="evenodd" clip-rule="evenodd" d="M12.0833 15C13.6916 15 15 13.6916 15 12.0833V3.91667C15 2.30842 13.6916 1 12.0833 1H3.91667C2.30842 1 1 2.30842 1 3.91667V12.0833C1 13.6916 2.30842 15 3.91667 15H12.0833ZM10.3333 8.58333C10.6553 8.58333 10.9167 8.32258 10.9167 8C10.9167 7.67742 10.6553 7.41667 10.3333 7.41667H8.58333H7.41667H5.66667C5.34467 7.41667 5.08333 7.67742 5.08333 8C5.08333 8.32258 5.34467 8.58333 5.66667 8.58333H7.41667H8.58333H10.3333Z" fill="#BA1446"/>
</svg>
