<svg width="16" height="16" viewBox="0 0 16 16" fill="none" xmlns="http://www.w3.org/2000/svg">
<path d="M12.0827 1H3.91766C2.30707 1 1 2.30707 1 3.91766V12.0855C1 13.6961 2.30707 15.0004 3.91766 15.0031H12.0855C13.6961 15.0031 15.0004 13.6961 15.0031 12.0855V3.91766C14.9977 2.30707 13.6933 1 12.0827 1ZM12.1702 5.96576L7.34666 10.7893C6.93923 11.1968 6.28023 11.1968 5.87279 10.7893L3.83016 8.7467C3.62507 8.54162 3.62507 8.21075 3.83016 8.0084C4.03524 7.80605 4.36611 7.80331 4.56846 8.0084L6.60836 10.0483L11.4319 5.22473C11.637 5.02238 11.9651 5.02238 12.1702 5.22473C12.3726 5.42981 12.3726 5.75795 12.1702 5.96303V5.96576Z" fill="#1997CE"/>
</svg>
