<svg width="16" height="16" viewBox="0 0 16 16" fill="none" xmlns="http://www.w3.org/2000/svg">
<path d="M13.3999 3.20076H11.5399C11.4007 2.52362 11.0322 1.91518 10.4967 1.47801C9.96115 1.04083 9.29127 0.801654 8.59996 0.800781L7.39996 0.800781C6.70864 0.801654 6.03876 1.04083 5.50323 1.47801C4.96769 1.91518 4.59924 2.52362 4.45998 3.20076H2.6C2.44087 3.20076 2.28826 3.26398 2.17573 3.3765C2.06321 3.48902 2 3.64163 2 3.80076C2 3.95989 2.06321 4.1125 2.17573 4.22502C2.28826 4.33754 2.44087 4.40076 2.6 4.40076H3.19999V12.2007C3.20094 12.9961 3.51732 13.7586 4.07972 14.321C4.64212 14.8834 5.40462 15.1997 6.19997 15.2007H9.79995C10.5953 15.1997 11.3578 14.8834 11.9202 14.321C12.4826 13.7586 12.799 12.9961 12.7999 12.2007V4.40076H13.3999C13.5591 4.40076 13.7117 4.33754 13.8242 4.22502C13.9367 4.1125 13.9999 3.95989 13.9999 3.80076C13.9999 3.64163 13.9367 3.48902 13.8242 3.3765C13.7117 3.26398 13.5591 3.20076 13.3999 3.20076ZM7.39996 2.00077H8.59996C8.97212 2.00123 9.33503 2.1168 9.63892 2.33164C9.94281 2.54648 10.1728 2.85006 10.2973 3.20076H5.70257C5.82712 2.85006 6.05711 2.54648 6.361 2.33164C6.66489 2.1168 7.0278 2.00123 7.39996 2.00077ZM11.5999 12.2007C11.5999 12.6781 11.4103 13.1359 11.0727 13.4735C10.7352 13.811 10.2773 14.0007 9.79995 14.0007H6.19997C5.72258 14.0007 5.26475 13.811 4.92719 13.4735C4.58962 13.1359 4.39998 12.6781 4.39998 12.2007V4.40076H11.5999V12.2007Z" fill="#FF004D"/>
<path d="M6.80019 11.6007C6.95932 11.6007 7.11193 11.5375 7.22445 11.425C7.33697 11.3125 7.40019 11.1599 7.40019 11.0008V7.40078C7.40019 7.24165 7.33697 7.08904 7.22445 6.97652C7.11193 6.864 6.95932 6.80078 6.80019 6.80078C6.64106 6.80078 6.48845 6.864 6.37593 6.97652C6.26341 7.08904 6.2002 7.24165 6.2002 7.40078V11.0008C6.2002 11.1599 6.26341 11.3125 6.37593 11.425C6.48845 11.5375 6.64106 11.6007 6.80019 11.6007Z" fill="#FF004D"/>
<path d="M9.20009 11.6007C9.35922 11.6007 9.51183 11.5375 9.62435 11.425C9.73688 11.3125 9.80009 11.1599 9.80009 11.0008V7.40078C9.80009 7.24165 9.73688 7.08904 9.62435 6.97652C9.51183 6.864 9.35922 6.80078 9.20009 6.80078C9.04096 6.80078 8.88835 6.864 8.77583 6.97652C8.66331 7.08904 8.6001 7.24165 8.6001 7.40078V11.0008C8.6001 11.1599 8.66331 11.3125 8.77583 11.425C8.88835 11.5375 9.04096 11.6007 9.20009 11.6007Z" fill="#FF004D"/>
</svg>
