<svg width="16" height="16" viewBox="0 0 16 16" fill="none" xmlns="http://www.w3.org/2000/svg">
<path d="M12.6669 7.26582C12.6663 7.39766 12.6267 7.52639 12.553 7.63571C12.4793 7.74503 12.3748 7.83004 12.2528 7.87999C12.1307 7.92994 11.9967 7.94259 11.8674 7.91633C11.7382 7.89008 11.6197 7.8261 11.5269 7.73248L8.47354 4.66582C8.41156 4.60333 8.33783 4.55373 8.25659 4.51989C8.17535 4.48604 8.08821 4.46862 8.0002 4.46862C7.9122 4.46862 7.82506 4.48604 7.74382 4.51989C7.66258 4.55373 7.58884 4.60333 7.52687 4.66582L4.47354 7.73248C4.41156 7.79497 4.33783 7.84456 4.25659 7.87841C4.17535 7.91226 4.08821 7.92968 4.0002 7.92968C3.91219 7.92968 3.82506 7.91226 3.74382 7.87841C3.66258 7.84456 3.58884 7.79497 3.52687 7.73248C3.4027 7.60757 3.33301 7.43861 3.33301 7.26248C3.33301 7.08636 3.4027 6.91739 3.52687 6.79248L6.58687 3.73248C6.96187 3.35795 7.4702 3.14757 8.0002 3.14757C8.5302 3.14757 9.03854 3.35795 9.41354 3.73248L12.4735 6.79248C12.5353 6.85478 12.5842 6.92865 12.6174 7.00988C12.6506 7.0911 12.6674 7.17808 12.6669 7.26582Z" fill="#2E3032"/>
<path d="M12.6669 11.9338C12.6663 12.0656 12.6267 12.1944 12.553 12.3037C12.4793 12.413 12.3748 12.498 12.2528 12.548C12.1307 12.5979 11.9967 12.6106 11.8674 12.5843C11.7382 12.558 11.6197 12.4941 11.5269 12.4005L8.0002 8.87378L4.47354 12.4005C4.41156 12.4629 4.33783 12.5125 4.25659 12.5464C4.17535 12.5802 4.08821 12.5977 4.0002 12.5977C3.91219 12.5977 3.82506 12.5802 3.74382 12.5464C3.66258 12.5125 3.58884 12.4629 3.52687 12.4005C3.4027 12.2755 3.33301 12.1066 3.33301 11.9305C3.33301 11.7543 3.4027 11.5854 3.52687 11.4605L7.52687 7.46045C7.58884 7.39797 7.66258 7.34837 7.74382 7.31452C7.82506 7.28068 7.9122 7.26325 8.0002 7.26325C8.08821 7.26325 8.17535 7.28068 8.25659 7.31452C8.33783 7.34837 8.41156 7.39797 8.47354 7.46045L12.4735 11.4605C12.5353 11.5227 12.5842 11.5966 12.6174 11.6778C12.6506 11.7591 12.6674 11.846 12.6669 11.9338Z" fill="#2E3032"/>
</svg>
