<svg width="16" height="16" viewBox="0 0 16 16" fill="none" xmlns="http://www.w3.org/2000/svg">
<path d="M8 15C9.38447 15 10.7378 14.5895 11.889 13.8203C13.0401 13.0511 13.9373 11.9579 14.4672 10.6788C14.997 9.3997 15.1356 7.99224 14.8655 6.63437C14.5954 5.2765 13.9287 4.02922 12.9497 3.05026C11.9708 2.07129 10.7235 1.4046 9.36563 1.13451C8.00777 0.86441 6.6003 1.00303 5.32122 1.53285C4.04213 2.06266 2.94888 2.95987 2.17971 4.11101C1.41054 5.26216 1 6.61553 1 8C1.00201 9.8559 1.74015 11.6352 3.05247 12.9475C4.36479 14.2599 6.1441 14.998 8 15ZM8 3.91667C8.17306 3.91667 8.34223 3.96799 8.48612 4.06413C8.63002 4.16028 8.74217 4.29694 8.8084 4.45682C8.87462 4.61671 8.89195 4.79264 8.85819 4.96237C8.82443 5.13211 8.74109 5.28802 8.61872 5.41039C8.49635 5.53276 8.34044 5.6161 8.1707 5.64986C8.00097 5.68362 7.82504 5.66629 7.66515 5.60006C7.50527 5.53384 7.36861 5.42169 7.27246 5.27779C7.17632 5.1339 7.125 4.96473 7.125 4.79167C7.125 4.55961 7.21719 4.33705 7.38128 4.17295C7.54538 4.00886 7.76794 3.91667 8 3.91667ZM7.41667 6.83334H8C8.30942 6.83334 8.60617 6.95625 8.82496 7.17505C9.04375 7.39384 9.16667 7.69058 9.16667 8V11.5C9.16667 11.6547 9.10521 11.8031 8.99581 11.9125C8.88642 12.0219 8.73804 12.0833 8.58333 12.0833C8.42862 12.0833 8.28025 12.0219 8.17086 11.9125C8.06146 11.8031 8 11.6547 8 11.5V8H7.41667C7.26196 8 7.11358 7.93855 7.00419 7.82915C6.89479 7.71975 6.83333 7.57138 6.83333 7.41667C6.83333 7.26196 6.89479 7.11359 7.00419 7.00419C7.11358 6.8948 7.26196 6.83334 7.41667 6.83334Z" fill="#1997CE"/>
</svg>
