<svg width="16" height="16" viewBox="0 0 16 16" fill="none" xmlns="http://www.w3.org/2000/svg">
<rect x="5" y="5" width="6" height="6" rx="1" fill="#D9D9D9"/>
<path d="M12.0833 1H3.91667C3.1434 1.00093 2.40208 1.30851 1.85529 1.85529C1.30851 2.40208 1.00093 3.1434 1 3.91667L1 12.0833C1.00093 12.8566 1.30851 13.5979 1.85529 14.1447C2.40208 14.6915 3.1434 14.9991 3.91667 15H12.0833C12.8566 14.9991 13.5979 14.6915 14.1447 14.1447C14.6915 13.5979 14.9991 12.8566 15 12.0833V3.91667C14.9991 3.1434 14.6915 2.40208 14.1447 1.85529C13.5979 1.30851 12.8566 1.00093 12.0833 1ZM13.8333 12.0833C13.8333 12.5475 13.649 12.9926 13.3208 13.3208C12.9926 13.649 12.5475 13.8333 12.0833 13.8333H3.91667C3.45254 13.8333 3.00742 13.649 2.67923 13.3208C2.35104 12.9926 2.16667 12.5475 2.16667 12.0833V3.91667C2.16667 3.45254 2.35104 3.00742 2.67923 2.67923C3.00742 2.35104 3.45254 2.16667 3.91667 2.16667H12.0833C12.5475 2.16667 12.9926 2.35104 13.3208 2.67923C13.649 3.00742 13.8333 3.45254 13.8333 3.91667V12.0833Z" fill="#D9D9D9"/>
</svg>
