<svg width="24" height="24" viewBox="0 0 24 24" fill="none" xmlns="http://www.w3.org/2000/svg">
<path d="M15.9375 3.6875C15.9375 2.47912 16.9166 1.5 18.125 1.5C19.3334 1.5 20.3125 2.47912 20.3125 3.6875C20.3125 4.89587 19.3334 5.875 18.125 5.875C16.9166 5.875 15.9375 4.89587 15.9375 3.6875ZM19 6.75H16.375C15.8911 6.75 15.5 7.142 15.5 7.625C15.5 8.108 15.8911 8.5 16.375 8.5H19C19.9651 8.5 20.75 9.28487 20.75 10.25V12.875C20.75 13.8401 19.9651 14.625 19 14.625C18.5161 14.625 18.125 15.017 18.125 15.5C18.125 15.983 18.5161 16.375 19 16.375V21.625C19 22.108 19.3911 22.5 19.875 22.5C20.3589 22.5 20.75 22.108 20.75 21.625V15.8885C21.7913 15.2812 22.5 14.1648 22.5 12.875V10.25C22.5 8.31975 20.9303 6.75 19 6.75ZM5.875 5.875C7.08337 5.875 8.0625 4.89587 8.0625 3.6875C8.0625 2.47912 7.08337 1.5 5.875 1.5C4.66663 1.5 3.6875 2.47912 3.6875 3.6875C3.6875 4.89587 4.66663 5.875 5.875 5.875ZM6.75 14.625H5C4.03487 14.625 3.25 13.8401 3.25 12.875V10.25C3.25 9.28487 4.03487 8.5 5 8.5H5.875C6.35887 8.5 6.75 8.108 6.75 7.625C6.75 7.142 6.35887 6.75 5.875 6.75H5C3.06975 6.75 1.5 8.31975 1.5 10.25V12.875C1.5 14.1648 2.20875 15.2812 3.25 15.8885V21.625C3.25 22.108 3.64112 22.5 4.125 22.5C4.60888 22.5 5 22.108 5 21.625V16.375H6.75V21.625C6.75 22.108 7.14113 22.5 7.625 22.5C8.10887 22.5 8.5 22.108 8.5 21.625V16.375C8.5 15.4099 7.71513 14.625 6.75 14.625ZM8.17275 11.5275L9.64975 13.0045C9.82038 13.1751 10.0444 13.2609 10.2684 13.2609C10.4924 13.2609 10.7164 13.1751 10.887 13.0045C11.2291 12.6624 11.2291 12.1085 10.887 11.7673L10.278 11.125H13.75C14.2339 11.125 14.625 10.733 14.625 10.25C14.625 9.767 14.2339 9.375 13.75 9.375H10.2448L10.887 8.73275C11.2291 8.3915 11.2291 7.83763 10.887 7.4955C10.5449 7.15338 9.99187 7.15338 9.64975 7.4955L8.17275 8.9725C7.46837 9.67688 7.46837 10.8231 8.17275 11.5275ZM15.8273 14.2225L14.3503 12.7455C14.0081 12.4034 13.4551 12.4034 13.113 12.7455C12.7709 13.0876 12.7709 13.6415 13.113 13.9827L13.722 14.625H10.25C9.76612 14.625 9.375 15.017 9.375 15.5C9.375 15.983 9.76612 16.375 10.25 16.375H13.7552L13.113 17.0172C12.7709 17.3585 12.7709 17.9124 13.113 18.2545C13.2836 18.4251 13.5076 18.5109 13.7316 18.5109C13.9556 18.5109 14.1796 18.4251 14.3503 18.2545L15.8273 16.7775C16.5316 16.0731 16.5316 14.9269 15.8273 14.2225ZM16.375 19C15.8911 19 15.5 19.392 15.5 19.875V21.625C15.5 22.108 15.8911 22.5 16.375 22.5C16.8589 22.5 17.25 22.108 17.25 21.625V19.875C17.25 19.392 16.8589 19 16.375 19Z" fill="#2E3032"/>
</svg>
