<svg width="24" height="24" viewBox="0 0 24 24" fill="none" xmlns="http://www.w3.org/2000/svg">
<g clip-path="url(#clip0_1245_7236)">
<circle cx="12" cy="12" r="12" fill="#F5834E"/>
<mask id="mask0_1245_7236" style="mask-type:alpha" maskUnits="userSpaceOnUse" x="0" y="0" width="24" height="24">
<circle cx="12" cy="12" r="12" fill="#F5834E"/>
</mask>
<g mask="url(#mask0_1245_7236)">
<path d="M13.6961 15.6484H9.10107V18.6745H13.6961V15.6484Z" fill="#FBBCA0"/>
<g style="mix-blend-mode:multiply">
<path d="M10.2154 17.8384C10.9079 18.1074 11.6669 18.2688 12.4121 18.2755C12.8385 18.28 13.2742 18.2262 13.6961 18.1545V15.6484H9.10107V17.213C9.42438 17.491 9.83481 17.6905 10.2154 17.8362V17.8384Z" fill="#E6E7E8"/>
</g>
<path d="M16.1977 10.0442C16.2115 9.93434 16.3995 9.75502 16.482 9.69449C16.6632 9.56 16.8466 9.69898 16.9017 9.87382C16.9498 10.0307 16.9544 10.2078 16.9659 10.3692C16.9934 10.7659 16.9338 11.156 16.7549 11.5146C16.6357 11.7545 16.4477 11.9495 16.2275 12.0974C16.2275 12.0974 15.9891 12.2162 15.9409 11.9427C15.9409 11.9427 16.2 10.0442 16.2 10.0419L16.1977 10.0442Z" fill="#FBBCA0"/>
<path d="M16.1589 10.282C16.1703 10.2036 16.3033 10.0758 16.3606 10.031C16.4913 9.93459 16.622 10.0332 16.661 10.1587C16.6954 10.2708 16.6977 10.3963 16.7069 10.5151C16.7275 10.7998 16.684 11.0778 16.5555 11.3333C16.4707 11.5037 16.3354 11.6449 16.1772 11.7502C16.1772 11.7502 16.0075 11.8354 15.9731 11.6404C15.9731 11.6404 16.1589 10.282 16.1589 10.2798V10.282Z" fill="#DDA78F"/>
<path d="M6.48497 10.0442C6.47122 9.93434 6.2832 9.75502 6.20065 9.69449C6.01951 9.56 5.83608 9.69898 5.78105 9.87382C5.7329 10.0307 5.72831 10.2078 5.71684 10.3692C5.68933 10.7659 5.74895 11.156 5.92779 11.5146C6.04703 11.7545 6.23275 11.9495 6.45517 12.0974C6.45517 12.0974 6.69363 12.2162 6.74178 11.9427C6.74178 11.9427 6.48268 10.0442 6.48268 10.0419L6.48497 10.0442Z" fill="#FBBCA0"/>
<path d="M6.52165 10.282C6.51019 10.2036 6.3772 10.0758 6.31987 10.031C6.18918 9.93459 6.05848 10.0332 6.0195 10.1587C5.98511 10.2708 5.98281 10.3963 5.97364 10.5151C5.95301 10.7998 5.99657 11.0778 6.12498 11.3333C6.20981 11.5037 6.3451 11.6449 6.50331 11.7502C6.50331 11.7502 6.67298 11.8354 6.70738 11.6404C6.70738 11.6404 6.52165 10.282 6.52165 10.2798V10.282Z" fill="#DDA78F"/>
<path d="M16.3423 10.4032C16.3423 11.6562 16.1268 12.9226 15.5352 14.0075C15.0193 14.9557 14.2443 15.7156 13.4143 16.3208C12.7402 16.8117 12.0179 17.3855 11.1626 17.316C10.273 17.242 9.58052 16.4844 8.92933 15.8927C8.01446 15.0588 7.29448 14.0255 6.84965 12.8083C6.57679 12.0574 6.45068 11.2123 6.45068 10.4054C6.45068 6.35497 8.66564 3.80859 11.3965 3.80859C14.1274 3.80859 16.3423 6.35497 16.3423 10.4054V10.4032Z" fill="#FBBCA0"/>
<path d="M19.4239 20.0457L13.6962 18.582H9.10122L3.3735 20.0457C3.3735 20.0457 0.720591 21.0074 0.424805 24.0491H22.3703C22.0746 21.0074 19.4217 20.0457 19.4217 20.0457H19.4239Z" fill="#FBBCA0"/>
<path d="M19.4239 20.0457L13.6962 18.582H9.10122L3.3735 20.0457C3.3735 20.0457 0.720591 21.0074 0.424805 24.0491H22.3703C22.0746 21.0074 19.4217 20.0457 19.4217 20.0457H19.4239Z" fill="white"/>
<path d="M19.4238 20.0447L15.1864 18.9621L11.4008 24.0504L7.65648 18.9531L3.3779 20.047C3.3779 20.047 0.724986 21.0086 0.429199 24.0504H22.3747C22.079 21.0086 19.426 20.047 19.426 20.047L19.4238 20.0447Z" fill="#3C0000"/>
<path d="M10.8965 21.5L9.8418 24.0486H12.8409L11.8114 21.5H10.8965Z" fill="#14BAAB"/>
<path d="M11.3295 18.6328L9.98584 20.3947L10.9191 21.5087L11.3776 21.502L11.8339 21.4952L12.7305 20.3521L11.3295 18.6328Z" fill="#14BAAB"/>
<g style="mix-blend-mode:multiply">
<path d="M12.2264 20.164C12.0544 20.4958 11.7357 20.8746 11.3 20.7804C10.8506 20.6841 10.6465 20.2694 10.7497 19.848C10.8506 19.4378 11.1212 19.0948 11.2725 18.707L9.98389 20.3949L10.9171 21.5089L11.832 21.4932L12.7285 20.3501L12.3502 19.8861C12.3135 19.9802 12.2722 20.0744 12.2264 20.164Z" fill="#D1D3D4"/>
</g>
<path d="M11.3986 24.0504L7.65422 18.9531L4.65967 19.7197L8.48655 22.3535L7.50289 22.7772L9.27303 24.0504H11.3986Z" fill="#270000"/>
<path d="M11.3984 24.0565L15.1451 18.957L18.1396 19.7236L14.3127 22.3574L15.2941 22.7811L13.5263 24.0565H11.3984Z" fill="#270000"/>
<path d="M6.84717 18.6913L9.09423 17.6602L11.3826 18.5949L13.6732 17.6602L16.0739 18.6913L12.6804 20.9126L11.3826 19.097L9.98618 20.9126L6.84717 18.6913Z" fill="#E2E3E4"/>
<path d="M14.2944 15.5866C14.2944 15.5866 15.5371 14.439 15.81 13.4258C15.81 13.4258 14.3448 14.7169 13.8335 14.5802L14.2921 15.5866H14.2944Z" fill="#150000"/>
<path d="M8.84898 15.9316C8.84898 15.9316 7.40903 14.7256 7.01465 13.2148C7.01465 13.2148 8.65638 15.0686 9.1677 14.9296L8.84898 15.9316Z" fill="#150000"/>
<path d="M12.2748 13.9436C13.0888 13.9549 13.5313 14.2283 13.5313 14.2283C14.2444 14.5578 14.4278 15.4522 14.4278 15.4522C14.4278 15.4522 13.9372 15.9834 13.3364 16.36C11.9813 17.4584 11.3599 17.3194 11.3599 17.3194C10.5895 17.3194 10.0484 16.8487 10.0484 16.8487L8.78037 15.8781C8.62216 14.7753 9.60812 14.2283 9.60812 14.2283C10.1997 13.9481 10.3052 13.984 10.3052 13.984C10.3052 13.984 11.1902 13.8831 11.4058 14.2261C11.4058 14.2261 11.6282 13.9414 12.2312 13.9414" fill="#1E0500"/>
<path d="M11.5179 14.8533C11.5179 14.8533 10.9608 14.5821 10.1514 14.8735C10.1514 14.8735 11.3804 16.1467 12.7745 14.8892C12.7745 14.8892 12.027 14.5485 11.5157 14.8533H11.5179Z" fill="#FBBCA0"/>
<path d="M16.3856 4.42864C17.5 3.63514 17.3785 2.41575 17.3785 2.41575C16.7296 3.11287 15.7803 3.20253 15.7803 3.20253C16.764 2.62646 16.2756 1.425 16.2756 1.425C15.9683 2.09746 14.6017 2.483 14.6017 2.483C15.2644 2.05038 14.8517 1.06635 14.8517 1.06635C14.3885 1.8352 13.0036 2.17143 13.0036 2.17143C13.9139 1.66708 14.0102 0.945312 14.0102 0.945312C13.1985 1.64243 10.9881 1.97866 10.9881 1.97866C10.9881 1.97866 8.55073 2.19608 7.9454 4.17535C6.1638 4.4264 6.14775 7.37176 6.27156 8.961L6.38392 10.8842H6.78059C6.60404 9.96296 6.78059 8.71444 6.78059 8.71444C7.05345 7.82007 7.19332 7.29107 7.36758 6.91673C7.78948 6.01564 8.44755 5.74217 8.86715 5.66148L9.26612 5.63234C11.011 5.38353 11.5246 6.59395 11.5246 6.59395C11.7952 5.89684 12.7055 5.72872 12.7055 5.72872C15.3584 5.38353 15.739 7.43453 15.739 7.43453L16.0394 8.73909C16.0807 9.17395 16.1518 10.1804 16.0165 10.8842H16.4132L16.5255 8.961C16.5278 8.90048 16.5278 8.84893 16.5255 8.80185C16.725 7.73041 16.9015 5.98202 16.3833 4.42864H16.3856Z" fill="#150000"/>
</g>
</g>
<defs>
<clipPath id="clip0_1245_7236">
<rect width="24" height="24" fill="white"/>
</clipPath>
</defs>
</svg>
