<svg width="24" height="24" viewBox="0 0 24 24" fill="none" xmlns="http://www.w3.org/2000/svg">
<path d="M9.8125 3.6875C9.8125 2.47912 10.7916 1.5 12 1.5C13.2084 1.5 14.1875 2.47912 14.1875 3.6875C14.1875 4.89587 13.2084 5.875 12 5.875C10.7916 5.875 9.8125 4.89587 9.8125 3.6875ZM10.25 9.375C10.25 8.89288 10.6429 8.5 11.125 8.5H12.875C13.3571 8.5 13.75 8.89288 13.75 9.375V11.125H15.5V9.375C15.5 7.92775 14.3223 6.75 12.875 6.75H11.125C9.67775 6.75 8.5 7.92775 8.5 9.375V11.125H10.25V9.375ZM4.125 9.375C5.33337 9.375 6.3125 8.39587 6.3125 7.1875C6.3125 5.97913 5.33337 5 4.125 5C2.91663 5 1.9375 5.97913 1.9375 7.1875C1.9375 8.39587 2.91663 9.375 4.125 9.375ZM6.75 17.25H9.375V22.5H7.625V19H4.125C2.67775 19 1.5 17.8223 1.5 16.375V12.875C1.5 11.4277 2.67775 10.25 4.125 10.25C5.57225 10.25 6.75 11.4277 6.75 12.875V17.25ZM5 17.25V12.875C5 12.3929 4.60713 12 4.125 12C3.64287 12 3.25 12.3929 3.25 12.875V16.375C3.25 16.858 3.64287 17.25 4.125 17.25H5ZM19.875 9.375C21.0834 9.375 22.0625 8.39587 22.0625 7.1875C22.0625 5.97913 21.0834 5 19.875 5C18.6666 5 17.6875 5.97913 17.6875 7.1875C17.6875 8.39587 18.6666 9.375 19.875 9.375ZM22.5 12.875V16.375C22.5 17.8223 21.3223 19 19.875 19H16.375V22.5H14.625V17.25H17.25V12.875C17.25 11.4277 18.4277 10.25 19.875 10.25C21.3223 10.25 22.5 11.4277 22.5 12.875ZM20.75 12.875C20.75 12.3929 20.3571 12 19.875 12C19.3929 12 19 12.3929 19 12.875V17.25H19.875C20.3571 17.25 20.75 16.858 20.75 16.375V12.875ZM15.5 12.875H8.5V14.625H15.5V12.875ZM1.5 22.5H5.875V20.75H1.5V22.5ZM18.125 22.5H22.5V20.75H18.125V22.5Z" fill="#2E3032"/>
</svg>
