<svg width="16" height="16" viewBox="0 0 16 16" fill="none" xmlns="http://www.w3.org/2000/svg">
<path d="M8 1C4.14008 1 1 4.14008 1 8C1 11.8599 4.14008 15 8 15C11.8599 15 15 11.8599 15 8C15 4.14008 11.8599 1 8 1ZM11.6167 7.132L9.03483 9.66658C8.57808 10.1146 7.99008 10.338 7.4015 10.338C6.81933 10.338 6.23717 10.1187 5.78217 9.67942L4.67442 8.59033C4.44458 8.36458 4.44167 7.99533 4.66742 7.7655C4.89258 7.53508 5.263 7.53217 5.49225 7.7585L6.5965 8.84408C7.04917 9.28158 7.76375 9.27925 8.21875 8.83358L10.8 6.29958C11.0292 6.07325 11.3973 6.07733 11.6248 6.30717C11.8506 6.537 11.8471 6.90625 11.6167 7.132Z" fill="#14BAA1"/>
</svg>
