<svg width="16" height="16" viewBox="0 0 16 16" fill="none" xmlns="http://www.w3.org/2000/svg">
<g clip-path="url(#clip0_329_1118)">
<path d="M11.5359 3.28595L8.00036 6.82149L4.46482 3.28595C4.13939 2.96052 3.61175 2.96052 3.28631 3.28595C2.96088 3.61139 2.96088 4.13903 3.28631 4.46447L6.82184 8L3.28631 11.5355C2.96088 11.861 2.96088 12.3886 3.28631 12.714C3.61175 13.0395 4.13939 13.0395 4.46482 12.714L8.00036 9.17851L11.5359 12.714C11.8613 13.0395 12.389 13.0395 12.7144 12.714C13.0398 12.3886 13.0398 11.861 12.7144 11.5355L9.17887 8L12.7144 4.46447C13.0398 4.13903 13.0398 3.61139 12.7144 3.28595C12.389 2.96052 11.8613 2.96052 11.5359 3.28595Z" fill="#FF004D"/>
</g>
<defs>
<clipPath id="clip0_329_1118">
<rect width="16" height="16" fill="white"/>
</clipPath>
</defs>
</svg>
