<svg width="36" height="36" viewBox="0 0 36 36" fill="none" xmlns="http://www.w3.org/2000/svg">
<path d="M0 0H32C34.2091 0 36 1.79086 36 4V32C36 34.2091 34.2091 36 32 36H0V0Z" fill="#2E3032"/>
<path fill-rule="evenodd" clip-rule="evenodd" d="M14.111 12.1797C15.2622 11.4105 16.6155 11 18 11C19.8559 11.002 21.6352 11.7401 22.9475 13.0525C24.2599 14.3648 24.998 16.1441 25 18C25 19.3845 24.5895 20.7378 23.8203 21.889C23.0511 23.0401 21.9579 23.9373 20.6788 24.4672C19.3997 24.997 17.9922 25.1356 16.6344 24.8655C15.2765 24.5954 14.0292 23.9287 13.0503 22.9497C12.0713 21.9708 11.4046 20.7235 11.1345 19.3656C10.8644 18.0078 11.003 16.6003 11.5328 15.3212C12.0627 14.0421 12.9599 12.9489 14.111 12.1797ZM14.7592 22.8502C15.7185 23.4912 16.8463 23.8333 18 23.8333C19.5466 23.8316 21.0293 23.2165 22.1229 22.1229C23.2165 21.0293 23.8316 19.5466 23.8333 18C23.8333 16.8463 23.4912 15.7185 22.8502 14.7592C22.2093 13.7999 21.2982 13.0522 20.2323 12.6107C19.1664 12.1692 17.9935 12.0537 16.862 12.2788C15.7304 12.5038 14.691 13.0594 13.8752 13.8752C13.0594 14.691 12.5038 15.7304 12.2788 16.862C12.0537 17.9935 12.1692 19.1664 12.6107 20.2323C13.0522 21.2982 13.7999 22.2093 14.7592 22.8502ZM17.5875 14.6709C17.6969 14.5615 17.8453 14.5 18 14.5C18.1547 14.5 18.3031 14.5615 18.4125 14.6709C18.5219 14.7803 18.5833 14.9286 18.5833 15.0833V17.9294C18.5844 18.0293 18.5598 18.1278 18.5119 18.2154C18.464 18.303 18.3944 18.3769 18.3098 18.4299L16.0698 19.8299C15.9383 19.9121 15.7795 19.9386 15.6284 19.9037C15.4773 19.8688 15.3463 19.7753 15.2642 19.6438C15.182 19.5123 15.1555 19.3536 15.1904 19.2025C15.2253 19.0514 15.3188 18.9204 15.4503 18.8383L17.4167 17.6062V15.0833C17.4167 14.9286 17.4781 14.7803 17.5875 14.6709Z" fill="white"/>
</svg>
