<svg width="16" height="16" viewBox="0 0 16 16" fill="none" xmlns="http://www.w3.org/2000/svg">
<path d="M13.8333 7.16667H8.83331V2.16667C8.83331 1.70643 8.46021 1.33333 7.99998 1.33333C7.53975 1.33333 7.16665 1.70643 7.16665 2.16667V7.16667H2.16665C1.70641 7.16667 1.33331 7.53977 1.33331 8C1.33331 8.46023 1.70641 8.83333 2.16665 8.83333H7.16665V13.8333C7.16665 14.2936 7.53975 14.6667 7.99998 14.6667C8.46021 14.6667 8.83331 14.2936 8.83331 13.8333V8.83333H13.8333C14.2935 8.83333 14.6666 8.46023 14.6666 8C14.6666 7.53977 14.2935 7.16667 13.8333 7.16667Z" fill="white"/>
</svg>
