<svg width="16" height="16" viewBox="0 0 16 16" fill="none" xmlns="http://www.w3.org/2000/svg">
<path d="M15 3.08334C15 3.5675 14.6092 3.95834 14.125 3.95834H1.875C1.39083 3.95834 1 3.5675 1 3.08334C1 2.59917 1.39083 2.20834 1.875 2.20834H14.125C14.6092 2.20834 15 2.59917 15 3.08334ZM9.45833 12.7083H6.54167C6.0575 12.7083 5.66667 13.0992 5.66667 13.5833C5.66667 14.0675 6.0575 14.4583 6.54167 14.4583H9.45833C9.9425 14.4583 10.3333 14.0675 10.3333 13.5833C10.3333 13.0992 9.9425 12.7083 9.45833 12.7083ZM11.7917 7.45834H4.20833C3.72417 7.45834 3.33333 7.84917 3.33333 8.33334C3.33333 8.8175 3.72417 9.20834 4.20833 9.20834H11.7917C12.2758 9.20834 12.6667 8.8175 12.6667 8.33334C12.6667 7.84917 12.2758 7.45834 11.7917 7.45834Z" fill="#2E3032"/>
</svg>
