<svg width="16" height="16" viewBox="0 0 16 16" fill="none" xmlns="http://www.w3.org/2000/svg">
<path d="M12.0833 2H3.91667C2.30842 2 1 3.3458 1 5V11C1 12.6542 2.30842 14 3.91667 14H12.0833C13.6916 14 15 12.6542 15 11V5C15 3.3458 13.6916 2 12.0833 2ZM3.91667 3.2H12.0833C13.0482 3.2 13.8333 4.0076 13.8333 5H2.16667C2.16667 4.0076 2.95183 3.2 3.91667 3.2ZM2.16667 11V6.2H5.08333V12.8H3.91667C2.95183 12.8 2.16667 11.9924 2.16667 11ZM12.0833 12.8H6.25V6.2H13.8333V11C13.8333 11.9924 13.0482 12.8 12.0833 12.8Z" fill="#2E3032"/>
</svg>
