<svg width="24" height="24" viewBox="0 0 24 24" fill="none" xmlns="http://www.w3.org/2000/svg">
<path fill-rule="evenodd" clip-rule="evenodd" d="M6.16652 3.26957C7.89323 2.11581 9.9233 1.5 12 1.5C14.7839 1.50301 17.4528 2.61022 19.4213 4.5787C21.3898 6.54718 22.497 9.21615 22.5 12C22.5 14.0767 21.8842 16.1068 20.7304 17.8335C19.5767 19.5602 17.9368 20.906 16.0182 21.7007C14.0996 22.4955 11.9884 22.7034 9.95156 22.2982C7.91476 21.8931 6.04384 20.8931 4.57538 19.4246C3.10693 17.9562 2.1069 16.0852 1.70176 14.0484C1.29661 12.0116 1.50455 9.90045 2.29927 7.98182C3.09399 6.0632 4.4398 4.42332 6.16652 3.26957ZM8.50001 12.875H11.125H12.875H12.8835H15.5C15.7321 12.875 15.9546 12.7828 16.1187 12.6187C16.2828 12.4546 16.375 12.2321 16.375 12C16.375 11.7679 16.2828 11.5454 16.1187 11.3813C15.9546 11.2172 15.7321 11.125 15.5 11.125H12.875H11.125H8.50001C8.26794 11.125 8.04538 11.2172 7.88129 11.3813C7.71719 11.5454 7.62501 11.7679 7.62501 12C7.62501 12.2321 7.71719 12.4546 7.88129 12.6187C8.04538 12.7828 8.26794 12.875 8.50001 12.875Z" fill="#BA1446"/>
</svg>
