<svg width="16" height="16" viewBox="0 0 16 16" fill="none" xmlns="http://www.w3.org/2000/svg">
<path d="M14.8361 14.0102L11.3497 10.5238C12.2998 9.36179 12.7669 7.87908 12.6544 6.38235C12.542 4.88561 11.8585 3.48935 10.7455 2.48238C9.63243 1.47541 8.17492 0.934772 6.67444 0.972289C5.17395 1.00981 3.74528 1.62261 2.68395 2.68395C1.62261 3.74528 1.00981 5.17395 0.972289 6.67444C0.934772 8.17492 1.47541 9.63243 2.48238 10.7455C3.48935 11.8585 4.88561 12.542 6.38235 12.6544C7.87908 12.7669 9.36179 12.2998 10.5238 11.3497L14.0102 14.8361C14.1203 14.9425 14.2679 15.0013 14.421 15C14.5742 14.9987 14.7207 14.9373 14.829 14.829C14.9373 14.7207 14.9987 14.5742 15 14.421C15.0013 14.2679 14.9425 14.1203 14.8361 14.0102ZM6.83001 11.5027C5.90584 11.5027 5.00243 11.2287 4.23401 10.7152C3.46559 10.2018 2.86668 9.47199 2.51301 8.61817C2.15935 7.76435 2.06681 6.82483 2.24711 5.91842C2.42741 5.012 2.87244 4.17941 3.52592 3.52592C4.17941 2.87244 5.012 2.42741 5.91842 2.24711C6.82483 2.06681 7.76435 2.15935 8.61817 2.51301C9.47199 2.86668 10.2018 3.46559 10.7152 4.23401C11.2287 5.00243 11.5027 5.90584 11.5027 6.83001C11.5013 8.06886 11.0086 9.25657 10.1326 10.1326C9.25657 11.0086 8.06886 11.5013 6.83001 11.5027Z" fill="#909090"/>
</svg>
