<svg width="16" height="16" viewBox="0 0 16 16" fill="none" xmlns="http://www.w3.org/2000/svg">
<g clip-path="url(#clip0_8_31)">
<rect width="16" height="16" fill="white" fill-opacity="0.07"/>
<path d="M15.2366 6.34286C14.2408 4.72103 11.9756 2 8.00004 2C4.02444 2 1.75927 4.72103 0.763439 6.34286C0.455591 6.84078 0.292526 7.41461 0.292526 8C0.292526 8.5854 0.455591 9.15923 0.763439 9.65715C1.75927 11.279 4.02444 14 8.00004 14C11.9756 14 14.2408 11.279 15.2366 9.65715C15.5445 9.15923 15.7076 8.5854 15.7076 8C15.7076 7.41461 15.5445 6.84078 15.2366 6.34286ZM14.1419 8.98492C13.2867 10.3756 11.3509 12.7159 8.00004 12.7159C4.64916 12.7159 2.71336 10.3756 1.85814 8.98492C1.67524 8.68896 1.57837 8.34792 1.57837 8C1.57837 7.65209 1.67524 7.31105 1.85814 7.01509C2.71336 5.6244 4.64916 3.28411 8.00004 3.28411C11.3509 3.28411 13.2867 5.62183 14.1419 7.01509C14.3248 7.31105 14.4217 7.65209 14.4217 8C14.4217 8.34792 14.3248 8.68896 14.1419 8.98492Z" fill="#D9D9D9"/>
<path d="M8.00001 4.6665C7.34074 4.6665 6.69627 4.862 6.14811 5.22827C5.59994 5.59454 5.1727 6.11514 4.92041 6.72423C4.66812 7.33331 4.6021 8.00353 4.73072 8.65014C4.85934 9.29674 5.17681 9.89068 5.64298 10.3569C6.10916 10.823 6.7031 11.1405 7.34971 11.2691C7.99631 11.3977 8.66653 11.3317 9.27562 11.0794C9.88471 10.8271 10.4053 10.3999 10.7716 9.85174C11.1378 9.30357 11.3333 8.65911 11.3333 7.99984C11.3323 7.11611 10.9808 6.26888 10.3559 5.64398C9.73097 5.01909 8.88374 4.66756 8.00001 4.6665ZM8.00001 9.99984C7.60444 9.99984 7.21776 9.88254 6.88887 9.66278C6.55997 9.44301 6.30362 9.13066 6.15225 8.7652C6.00087 8.39975 5.96127 7.99762 6.03844 7.60966C6.11561 7.22169 6.30609 6.86533 6.58579 6.58562C6.8655 6.30592 7.22186 6.11544 7.60983 6.03827C7.99779 5.9611 8.39992 6.0007 8.76537 6.15208C9.13083 6.30345 9.44318 6.5598 9.66295 6.8887C9.88271 7.2176 10 7.60427 10 7.99984C10 8.53027 9.78929 9.03898 9.41422 9.41405C9.03915 9.78912 8.53044 9.99984 8.00001 9.99984Z" fill="#D9D9D9"/>
<line y1="-0.5" x2="18.5868" y2="-0.5" transform="matrix(0.614276 0.789091 -0.614276 0.789091 1.77226 1.3335)" stroke="#D9D9D9"/>
</g>
<defs>
<clipPath id="clip0_8_31">
<rect width="16" height="16" fill="white"/>
</clipPath>
</defs>
</svg>
