<svg width="16" height="16" viewBox="0 0 16 16" fill="none" xmlns="http://www.w3.org/2000/svg">
<path d="M15.2366 6.34286C14.2408 4.72103 11.9756 2 8 2C4.02439 2 1.75922 4.72103 0.763393 6.34286C0.455546 6.84078 0.29248 7.41461 0.29248 8C0.29248 8.5854 0.455546 9.15923 0.763393 9.65715C1.75922 11.279 4.02439 14 8 14C11.9756 14 14.2408 11.279 15.2366 9.65715C15.5444 9.15923 15.7075 8.5854 15.7075 8C15.7075 7.41461 15.5444 6.84078 15.2366 6.34286ZM14.1419 8.98492C13.2867 10.3756 11.3509 12.7159 8 12.7159C4.64911 12.7159 2.71331 10.3756 1.8581 8.98492C1.6752 8.68896 1.57832 8.34792 1.57832 8C1.57832 7.65209 1.6752 7.31105 1.8581 7.01509C2.71331 5.6244 4.64911 3.28411 8 3.28411C11.3509 3.28411 13.2867 5.62183 14.1419 7.01509C14.3248 7.31105 14.4217 7.65209 14.4217 8C14.4217 8.34792 14.3248 8.68896 14.1419 8.98492Z" fill="#D9D9D9"/>
<path d="M8.00008 4.66669C7.34081 4.66669 6.69635 4.86218 6.14818 5.22845C5.60002 5.59473 5.17278 6.11532 4.92048 6.72441C4.66819 7.3335 4.60218 8.00372 4.7308 8.65032C4.85942 9.29692 5.17689 9.89087 5.64306 10.357C6.10924 10.8232 6.70318 11.1407 7.34978 11.2693C7.99639 11.3979 8.66661 11.3319 9.27569 11.0796C9.88478 10.8273 10.4054 10.4001 10.7716 9.85192C11.1379 9.30376 11.3334 8.65929 11.3334 8.00002C11.3324 7.11629 10.9808 6.26906 10.3559 5.64417C9.73104 5.01928 8.88381 4.66775 8.00008 4.66669ZM8.00008 10C7.60452 10 7.21784 9.88272 6.88894 9.66296C6.56004 9.4432 6.3037 9.13084 6.15232 8.76539C6.00095 8.39994 5.96134 7.9978 6.03851 7.60984C6.11568 7.22188 6.30616 6.86551 6.58587 6.58581C6.86557 6.3061 7.22194 6.11562 7.6099 6.03845C7.99786 5.96128 8.4 6.00089 8.76545 6.15226C9.1309 6.30364 9.44326 6.55998 9.66302 6.88888C9.88278 7.21778 10.0001 7.60446 10.0001 8.00002C10.0001 8.53045 9.78937 9.03916 9.4143 9.41423C9.03922 9.78931 8.53052 10 8.00008 10Z" fill="#D9D9D9"/>
</svg>
