<svg width="16" height="16" viewBox="0 0 16 16" fill="none" xmlns="http://www.w3.org/2000/svg">
<path d="M10.887 2.19584C10.1164 1.42467 9.09089 1 8.00005 1C6.90921 1 5.88371 1.42467 5.11253 2.19584C3.52061 3.78777 3.52061 6.37837 5.1172 7.97496L6.57263 9.3983C6.96638 9.7833 7.48321 9.9758 8.00005 9.9758C8.51689 9.9758 9.03372 9.7833 9.42748 9.3983L10.887 7.97029C11.6582 7.19912 12.0834 6.17361 12.0834 5.08277C12.0834 3.99193 11.6582 2.96759 10.887 2.19584ZM8.00005 6.82753C7.03346 6.82753 6.25004 6.04411 6.25004 5.07752C6.25004 4.11093 7.03346 3.32751 8.00005 3.32751C8.96664 3.32751 9.75006 4.11093 9.75006 5.07752C9.75006 6.04411 8.96664 6.82753 8.00005 6.82753ZM15.0001 10.7779C15.0013 10.9844 14.8933 11.1757 14.7172 11.2813L8.96489 14.7329C8.66739 14.9114 8.33372 15.0007 8.00063 15.0007C7.66755 15.0007 7.3333 14.9114 7.03638 14.7329L1.28293 11.2813C1.10618 11.1751 0.998843 10.9838 1.00001 10.7779C1.00118 10.572 1.11084 10.3818 1.28876 10.278L4.12086 8.62013C4.17919 8.6843 4.23928 8.74788 4.30111 8.80971L5.75654 10.2325C6.35621 10.8193 7.15363 11.1431 8.00005 11.1431C8.84647 11.1431 9.64331 10.8193 10.2436 10.2325L11.7124 8.79571C11.7696 8.73855 11.8256 8.67963 11.8798 8.62013L14.7113 10.2774C14.8893 10.3818 14.9989 10.5726 15.0001 10.7779Z" fill="#1997CE"/>
</svg>
