<svg width="16" height="16" viewBox="0 0 16 16" fill="none" xmlns="http://www.w3.org/2000/svg">
<path d="M8.00012 1C9.8559 1.00209 11.6351 1.74049 12.9474 3.05273C14.2596 4.36504 14.9981 6.14418 15.0001 8C15.0001 9.38431 14.5894 10.7376 13.8204 11.8887C13.0513 13.0397 11.9578 13.937 10.6788 14.4668C9.39975 14.9966 7.99178 15.1353 6.63391 14.8652C5.27623 14.5951 4.0288 13.929 3.04992 12.9502C2.07096 11.9712 1.404 10.7231 1.13391 9.36523C0.863945 8.00757 1.00265 6.60018 1.53235 5.32129C2.06213 4.04229 2.95943 2.94885 4.11047 2.17969C5.26161 1.41052 6.61565 1 8.00012 1ZM10.2325 2.61035C9.16664 2.16884 7.993 2.05324 6.86145 2.27832C5.73005 2.50341 4.69085 3.05934 3.87512 3.875C3.05931 4.69081 2.50352 5.73075 2.27844 6.8623C2.05345 7.99376 2.169 9.16663 2.61047 10.2324C3.05199 11.2983 3.79965 12.2096 4.75891 12.8506C5.71817 13.4915 6.84644 13.833 8.00012 13.833C9.54657 13.8312 11.0297 13.2166 12.1232 12.123C13.2167 11.0295 13.8314 9.5465 13.8331 8C13.8331 6.84628 13.4907 5.71808 12.8497 4.75879C12.2088 3.79977 11.2982 3.05181 10.2325 2.61035ZM8.00012 4.5C8.15471 4.50009 8.30291 4.56158 8.41223 4.6709C8.52155 4.78022 8.58304 4.92842 8.58313 5.08301V7.92969C8.58414 8.02946 8.5597 8.12826 8.51184 8.21582C8.46398 8.30327 8.39414 8.37672 8.30969 8.42969L6.06945 9.83008C5.93798 9.91216 5.77907 9.93821 5.62805 9.90332C5.47707 9.86838 5.3459 9.77499 5.26379 9.64355C5.18177 9.5121 5.15568 9.35312 5.19055 9.20215C5.22552 9.05125 5.31893 8.91996 5.45031 8.83789L7.41613 7.60645V5.08301C7.41622 4.92849 7.47781 4.7802 7.58703 4.6709C7.69643 4.5615 7.84541 4.5 8.00012 4.5Z" fill="white"/>
</svg>
