<svg width="16" height="16" viewBox="0 0 16 16" fill="none" xmlns="http://www.w3.org/2000/svg">
<path d="M6.83333 14.4167C6.83333 14.7392 6.57258 15 6.25 15H3.91667C2.30842 15 1 13.6916 1 12.0833V3.91667C1 2.30842 2.30842 1 3.91667 1H8.58333C10.1916 1 11.5 2.30842 11.5 3.91667V5.08333C11.5 5.40592 11.2392 5.66667 10.9167 5.66667C10.5941 5.66667 10.3333 5.40592 10.3333 5.08333V3.91667C10.3333 2.95183 9.54817 2.16667 8.58333 2.16667H3.91667C2.95183 2.16667 2.16667 2.95183 2.16667 3.91667V12.0833C2.16667 13.0482 2.95183 13.8333 3.91667 13.8333H6.25C6.57258 13.8333 6.83333 14.0941 6.83333 14.4167ZM9.16667 4.5C9.16667 4.17742 8.90592 3.91667 8.58333 3.91667H3.91667C3.59408 3.91667 3.33333 4.17742 3.33333 4.5C3.33333 4.82258 3.59408 5.08333 3.91667 5.08333H8.58333C8.90592 5.08333 9.16667 4.82258 9.16667 4.5ZM6.83333 7.41667C6.83333 7.09408 6.57258 6.83333 6.25 6.83333H3.91667C3.59408 6.83333 3.33333 7.09408 3.33333 7.41667C3.33333 7.73925 3.59408 8 3.91667 8H6.25C6.57258 8 6.83333 7.73925 6.83333 7.41667ZM3.91667 9.75C3.59408 9.75 3.33333 10.0107 3.33333 10.3333C3.33333 10.6559 3.59408 10.9167 3.91667 10.9167H5.08333C5.40592 10.9167 5.66667 10.6559 5.66667 10.3333C5.66667 10.0107 5.40592 9.75 5.08333 9.75H3.91667ZM15 10.9167C15 13.1677 13.1677 15 10.9167 15C8.66558 15 6.83333 13.1677 6.83333 10.9167C6.83333 8.66558 8.66558 6.83333 10.9167 6.83333C13.1677 6.83333 15 8.66558 15 10.9167ZM13.8333 10.9167C13.8333 9.30842 12.5249 8 10.9167 8C9.30842 8 8 9.30842 8 10.9167C8 12.5249 9.30842 13.8333 10.9167 13.8333C12.5249 13.8333 13.8333 12.5249 13.8333 10.9167ZM11.9713 10.1927L10.6746 11.4376C10.5906 11.5198 10.4535 11.5216 10.3701 11.4388L9.71033 10.7924C9.47933 10.5661 9.11067 10.5696 8.8855 10.8006C8.65975 11.031 8.66325 11.3997 8.89367 11.6254L9.554 12.2723C9.82233 12.5342 10.1735 12.6655 10.5241 12.6655C10.8747 12.6655 11.2247 12.5342 11.4883 12.2741L12.7793 11.0351C13.0114 10.8117 13.019 10.4424 12.7962 10.2102C12.5728 9.97692 12.2029 9.9705 11.9713 10.1933V10.1927Z" fill="white"/>
</svg>
