<svg width="16" height="16" viewBox="0 0 16 16" fill="none" xmlns="http://www.w3.org/2000/svg">
<path d="M11.8826 1.54251L4.77064 8.65451C4.499 8.92468 4.28366 9.24604 4.13707 9.6C3.99048 9.95396 3.91556 10.3335 3.91664 10.7166V11.5C3.91664 11.6547 3.9781 11.8031 4.08749 11.9125C4.19689 12.0219 4.34526 12.0833 4.49997 12.0833H5.28339C5.6665 12.0844 6.04602 12.0095 6.39998 11.8629C6.75394 11.7163 7.0753 11.501 7.34547 11.2293L14.4575 4.11734C14.7984 3.77561 14.9898 3.31262 14.9898 2.82992C14.9898 2.34723 14.7984 1.88424 14.4575 1.54251C14.1108 1.21111 13.6497 1.02617 13.1701 1.02617C12.6905 1.02617 12.2293 1.21111 11.8826 1.54251ZM13.6326 3.29251L6.52064 10.4045C6.19171 10.7314 5.74714 10.9155 5.28339 10.9167H5.0833V10.7166C5.08452 10.2528 5.26855 9.80827 5.59547 9.47934L12.7075 2.36734C12.8321 2.24831 12.9977 2.18189 13.1701 2.18189C13.3424 2.18189 13.508 2.24831 13.6326 2.36734C13.7551 2.49014 13.8239 2.65649 13.8239 2.82992C13.8239 3.00335 13.7551 3.16971 13.6326 3.29251Z" fill="white"/>
<path d="M14.4167 6.23775C14.262 6.23775 14.1136 6.29921 14.0042 6.40861C13.8948 6.518 13.8333 6.66637 13.8333 6.82108V9.75H11.5C11.0359 9.75 10.5908 9.93438 10.2626 10.2626C9.93438 10.5908 9.75 11.0359 9.75 11.5V13.8333H3.91667C3.45254 13.8333 3.00742 13.649 2.67923 13.3208C2.35104 12.9926 2.16667 12.5475 2.16667 12.0833V3.91667C2.16667 3.45254 2.35104 3.00742 2.67923 2.67923C3.00742 2.35104 3.45254 2.16667 3.91667 2.16667H9.19117C9.34588 2.16667 9.49425 2.10521 9.60365 1.99581C9.71304 1.88642 9.7745 1.73804 9.7745 1.58333C9.7745 1.42862 9.71304 1.28025 9.60365 1.17085C9.49425 1.06146 9.34588 1 9.19117 1H3.91667C3.1434 1.00093 2.40208 1.30851 1.8553 1.8553C1.30851 2.40208 1.00093 3.1434 1 3.91667L1 12.0833C1.00093 12.8566 1.30851 13.5979 1.8553 14.1447C2.40208 14.6915 3.1434 14.9991 3.91667 15H10.5334C10.9166 15.0011 11.2962 14.9262 11.6503 14.7796C12.0043 14.633 12.3258 14.4177 12.5961 14.146L14.1454 12.5955C14.4171 12.3253 14.6325 12.004 14.7792 11.65C14.9259 11.2961 15.0009 10.9166 15 10.5334V6.82108C15 6.66637 14.9385 6.518 14.8291 6.40861C14.7198 6.29921 14.5714 6.23775 14.4167 6.23775ZM11.7713 13.3212C11.5368 13.5551 11.2402 13.717 10.9167 13.7878V11.5C10.9167 11.3453 10.9781 11.1969 11.0875 11.0875C11.1969 10.9781 11.3453 10.9167 11.5 10.9167H13.7896C13.7174 11.2396 13.5557 11.5355 13.3229 11.7707L11.7713 13.3212Z" fill="white"/>
</svg>
