<svg width="16" height="16" viewBox="0 0 16 16" fill="none" xmlns="http://www.w3.org/2000/svg">
<path d="M10.3625 5.10028C10.3642 5.13066 10.3744 5.15925 10.3744 5.19023V5.61554C10.3744 5.94435 10.6406 6.21121 10.97 6.21121C11.2994 6.21121 11.5657 5.94435 11.5657 5.61554V5.19023C11.5657 4.12398 10.9903 3.13338 10.0646 2.60442L7.68193 1.24272C6.77055 0.721504 5.63759 0.721504 4.72621 1.24272L2.34412 2.60382C1.41845 3.13278 0.843628 4.12398 0.843628 5.19023V8.96916C0.843628 10.0164 1.40296 10.998 2.30421 11.5317L4.6869 12.9429C5.14616 13.2151 5.67095 13.3587 6.20467 13.3587C6.53348 13.3587 6.80034 13.0918 6.80034 12.763V7.14582L10.3625 5.10028ZM2.93503 3.6385L5.31771 2.2768C5.86514 1.96407 6.5442 1.96467 7.09162 2.2768L9.47431 3.6385C9.63871 3.73262 9.77691 3.85592 9.90081 3.99174L6.19514 6.12007L2.49245 4.01378C2.61992 3.86903 2.76348 3.73679 2.93562 3.6385H2.93503ZM5.29389 11.9177L2.9112 10.5066C2.37033 10.1861 2.03497 9.5976 2.03497 8.96916V5.19023C2.03497 5.16938 2.04271 5.14972 2.04331 5.12947L5.609 7.15832V12.0661C5.49999 12.0273 5.39456 11.9779 5.29389 11.9183V11.9177ZM14.7013 12.3931L14.1158 12.0559C14.1926 11.8069 14.2456 11.5478 14.2456 11.2738C14.2456 10.9998 14.192 10.7407 14.1158 10.4917L14.7013 10.1546C14.9866 9.99074 15.0849 9.62619 14.9199 9.34086C14.7567 9.05673 14.3916 8.95725 14.1068 9.12225L13.5249 9.45762C13.1645 9.06924 12.6951 8.78689 12.1614 8.66537V7.99763C12.1614 7.66882 11.8951 7.40195 11.5657 7.40195C11.2363 7.40195 10.97 7.66882 10.97 7.99763V8.66537C10.4363 8.78749 9.96633 9.06924 9.60655 9.45762L9.02457 9.12225C8.73925 8.95725 8.37589 9.05673 8.21148 9.34086C8.04708 9.62619 8.14477 9.99015 8.43009 10.1546L9.01564 10.4917C8.9388 10.7407 8.88578 10.9998 8.88578 11.2738C8.88578 11.5478 8.93939 11.8069 9.01564 12.0559L8.43009 12.3931C8.14477 12.5569 8.04708 12.9214 8.21148 13.2068C8.32168 13.398 8.52183 13.5046 8.72793 13.5046C8.8286 13.5046 8.93105 13.479 9.02457 13.4248L9.60655 13.0894C9.96693 13.4778 10.4363 13.7601 10.97 13.8817V14.5494C10.97 14.8782 11.2363 15.1451 11.5657 15.1451C11.8951 15.1451 12.1614 14.8782 12.1614 14.5494V13.8817C12.6951 13.7596 13.1651 13.4778 13.5249 13.0894L14.1068 13.4248C14.2004 13.479 14.3028 13.5046 14.4035 13.5046C14.6096 13.5046 14.8103 13.3974 14.9199 13.2068C15.0843 12.9214 14.9861 12.5575 14.7013 12.3931ZM11.5651 12.763C10.7437 12.763 10.0759 12.0947 10.0759 11.2738C10.0759 10.453 10.7437 9.78464 11.5651 9.78464C12.3865 9.78464 13.0543 10.453 13.0543 11.2738C13.0543 12.0947 12.3865 12.763 11.5651 12.763Z" fill="white"/>
</svg>
