<svg width="16" height="16" viewBox="0 0 16 16" fill="none" xmlns="http://www.w3.org/2000/svg">
<path d="M14.2498 10.1332C14.0112 9.337 13.4448 8.82075 12.6667 8.65042C12.697 8.30567 12.4339 7.99767 12.0833 8C11.7613 8 11.5 8.26075 11.5 8.58333H9.16667C9.16667 8.26075 8.90533 8 8.58333 8C8.23275 7.99825 7.96967 8.30625 8 8.651C7.22183 8.82192 6.65483 9.33933 6.41333 10.1467C5.84925 11.8127 5.66667 13.2564 5.66667 13.6945C5.66667 14.4143 6.25233 15 6.97217 15C7.92825 15 9.02375 13.7686 9.46942 13.117C9.6625 12.8352 9.98567 12.6667 10.3333 12.6667C10.681 12.6667 11.0042 12.8352 11.1973 13.1164C11.6429 13.768 12.7384 15 13.6945 15C14.4143 15 15 14.4143 15 13.6945C15 13.2564 14.8174 11.8127 14.2498 10.1338V10.1332ZM13.6951 13.8333C13.4804 13.8252 12.7349 13.2978 12.1603 12.4578C11.7491 11.8587 11.0666 11.5 10.3339 11.5C9.60125 11.5 8.91817 11.8582 8.5075 12.4584C7.93292 13.2978 7.18683 13.8257 6.97333 13.8333C6.89692 13.8333 6.8345 13.7715 6.8345 13.6945C6.8345 13.3877 6.99667 12.0647 7.53567 10.4687C7.62783 10.1607 7.83725 9.75058 8.5845 9.75058H12.0845C12.8317 9.75058 13.0412 10.1607 13.1497 10.5206C13.6723 12.0647 13.8345 13.3877 13.8345 13.6945C13.8345 13.7715 13.7721 13.8333 13.6962 13.8333H13.6951ZM9.16667 3.91667C9.48867 3.91667 9.75 4.17742 9.75 4.5C9.75 4.82258 9.48867 5.08333 9.16667 5.08333H4.5C4.178 5.08333 3.91667 4.82258 3.91667 4.5C3.91667 4.17742 4.178 3.91667 4.5 3.91667H9.16667ZM6.25 7.41667H4.5C4.178 7.41667 3.91667 7.15592 3.91667 6.83333C3.91667 6.51075 4.178 6.25 4.5 6.25H6.25C6.572 6.25 6.83333 6.51075 6.83333 6.83333C6.83333 7.15592 6.572 7.41667 6.25 7.41667ZM4.5 14.4167C4.5 14.7392 4.23867 15 3.91667 15C2.30842 15 1 13.6916 1 12.0833V3.91667C1 2.30842 2.30842 1 3.91667 1H9.75C11.3582 1 12.6667 2.30842 12.6667 3.91667V6.25C12.6667 6.57258 12.4053 6.83333 12.0833 6.83333C11.7613 6.83333 11.5 6.57258 11.5 6.25V3.91667C11.5 2.95183 10.7148 2.16667 9.75 2.16667H3.91667C2.95183 2.16667 2.16667 2.95183 2.16667 3.91667V12.0833C2.16667 13.0482 2.95183 13.8333 3.91667 13.8333C4.23867 13.8333 4.5 14.0941 4.5 14.4167Z" fill="white"/>
</svg>
