<svg width="16" height="16" viewBox="0 0 16 16" fill="none" xmlns="http://www.w3.org/2000/svg">
<path d="M13.8333 4.341V2.16907C13.8333 1.84713 13.5726 1.58585 13.25 1.58585C12.9274 1.58585 12.6667 1.84713 12.6667 2.16907V3.54898L9.63158 1.50128C8.6405 0.832906 7.3595 0.832906 6.36842 1.50128L2.28508 4.25643C1.48067 4.79941 1 5.70283 1 6.67389V12.0839C1 13.6918 2.30842 15 3.91667 15H5.66667C5.98925 15 6.25 14.7387 6.25 14.4168V9.75099C6.25 9.42963 6.51133 9.16776 6.83333 9.16776H9.16667C9.48867 9.16776 9.75 9.42963 9.75 9.75099V14.4168C9.75 14.7387 10.0107 15 10.3333 15H12.0833C13.6916 15 15 13.6918 15 12.0839V6.67389C15 5.75182 14.566 4.8904 13.8333 4.341ZM13.8333 12.0839C13.8333 13.0485 13.0482 13.8336 12.0833 13.8336H10.9167V9.75099C10.9167 8.78633 10.1315 8.00131 9.16667 8.00131H6.83333C5.8685 8.00131 5.08333 8.78633 5.08333 9.75099V13.8336H3.91667C2.95183 13.8336 2.16667 13.0485 2.16667 12.0839V6.67389C2.16667 6.09125 2.45483 5.54886 2.93783 5.22342L7.02117 2.46827C7.61617 2.06701 8.38383 2.06701 8.97825 2.46827L13.0616 5.22342C13.5446 5.54886 13.8328 6.09125 13.8328 6.67389L13.8333 12.0839Z" fill="white"/>
</svg>
