<svg width="32" height="32" viewBox="0 0 32 32" fill="none" xmlns="http://www.w3.org/2000/svg">
<path d="M16.3796 1.86294C16.5329 2.01622 16.6544 2.1982 16.7374 2.39849C16.8203 2.59879 16.863 2.81347 16.863 3.03027C16.863 3.24707 16.8203 3.46175 16.7374 3.66204C16.6544 3.86233 16.5329 4.04431 16.3796 4.19759L8.37433 12.2047C7.57493 13.0045 7.12584 14.0892 7.12584 15.2202C7.12584 16.3512 7.57493 17.4359 8.37433 18.2357L9.34783 19.2086C10.1404 20.0017 11.2133 20.4504 12.3342 20.4576C13.4551 20.4648 14.5338 20.0299 15.3364 19.2472L15.3758 19.2086C15.3887 19.1958 15.4015 19.183 15.4134 19.1692L18.7134 15.8736C19.025 15.575 19.4411 15.4103 19.8726 15.415C20.304 15.4196 20.7165 15.5931 21.0216 15.8983C21.3267 16.2035 21.5002 16.6162 21.5048 17.0478C21.5094 17.4794 21.3448 17.8956 21.0463 18.2073L12.3655 26.8912L5.6335 20.1614C4.98446 19.5127 4.46957 18.7425 4.11828 17.8946C3.76699 17.0468 3.58618 16.138 3.58618 15.2202C3.58618 14.3024 3.76699 13.3937 4.11828 12.5458C4.46957 11.698 4.98446 10.9277 5.6335 10.279L14.0457 1.86294C14.199 1.70962 14.3809 1.58799 14.5811 1.505C14.7813 1.42202 14.9959 1.37931 15.2127 1.37931C15.4294 1.37931 15.644 1.42202 15.8442 1.505C16.0444 1.58799 16.2264 1.70962 16.3796 1.86294Z" fill="white"/>
<path d="M19.8795 5.364L26.6069 12.0938C27.3141 12.7988 27.8606 13.6484 28.2092 14.5843C28.3151 14.8655 28.402 15.1535 28.4696 15.4463C28.7405 16.6036 28.7117 17.8109 28.3857 18.954C28.0598 20.097 27.4475 21.1379 26.6069 21.978L18.1946 30.3931C17.885 30.7027 17.4652 30.8766 17.0274 30.8765C16.5896 30.8764 16.1698 30.7024 15.8603 30.3927C15.5509 30.083 15.377 29.6629 15.3771 29.225C15.3772 28.7871 15.5512 28.3672 15.8608 28.0576L23.8661 20.0495C24.2626 19.654 24.5773 19.1841 24.7919 18.6667C25.0066 18.1493 25.1171 17.5947 25.1171 17.0345C25.1171 16.4743 25.0066 15.9196 24.7919 15.4022C24.5773 14.8849 24.2626 14.4149 23.8661 14.0194L22.8935 13.0474C22.4977 12.6514 22.0278 12.3372 21.5107 12.1229C20.9935 11.9085 20.4393 11.7982 19.8795 11.7982C19.3197 11.7982 18.7654 11.9085 18.2482 12.1229C17.7311 12.3372 17.2612 12.6514 16.8655 13.0474L13.5279 16.3862C13.2142 16.6726 12.8022 16.8271 12.3776 16.8173C11.9529 16.8076 11.5484 16.6344 11.2482 16.3339C10.948 16.0333 10.7752 15.6285 10.7658 15.2037C10.7564 14.779 10.9111 14.3669 11.1977 14.0534L19.8795 5.364Z" fill="white"/>
</svg>
