<svg width="16" height="16" viewBox="0 0 16 16" fill="none" xmlns="http://www.w3.org/2000/svg">
<path d="M14.7034 7.42671C14.4194 7.04526 13.9837 6.82595 13.5078 6.82595H13.2494V5.66702C13.2494 4.05898 11.9411 2.75074 10.3331 2.75074H7.38414C7.29432 2.75074 7.20333 2.72916 7.12342 2.6895L5.28325 1.76912C5.04178 1.64838 4.77115 1.58481 4.50052 1.58481H3.334C2.04734 1.58423 1.00098 2.63059 1.00098 3.91725V11.4996C1.00098 13.1076 2.30922 14.4159 3.91726 14.4159H11.2418C12.5401 14.4159 13.6623 13.5806 14.0426 12.3121L14.9361 8.74487C15.0726 8.28876 14.9875 7.80874 14.7034 7.42671ZM2.16749 11.4996V3.91725C2.16749 3.27392 2.69067 2.75074 3.334 2.75074H4.50052C4.59034 2.75074 4.68133 2.77232 4.76123 2.81198L6.60141 3.73236C6.84288 3.85309 7.11351 3.91667 7.38414 3.91667H10.3331C11.2978 3.91667 12.0829 4.70173 12.0829 5.66644V6.82537H6.02573C5.0342 6.82537 4.14881 7.4547 3.81577 8.41183L2.53844 12.5751C2.30631 12.2782 2.16749 11.905 2.16749 11.4996ZM13.8116 8.43574L12.9181 12.0024C12.6941 12.7483 12.0204 13.2494 11.2418 13.2494H3.91726C3.79594 13.2494 3.67754 13.2371 3.56322 13.2132L4.92454 8.7752C5.08727 8.30684 5.53055 7.99247 6.02632 7.99247H13.5083C13.6495 7.99247 13.7317 8.07412 13.7679 8.12312C13.804 8.17211 13.8589 8.27418 13.8116 8.43574Z" fill="white"/>
</svg>
