<svg width="16" height="16" viewBox="0 0 16 16" fill="none" xmlns="http://www.w3.org/2000/svg">
<path d="M5.08333 1H3.33333C2.71449 1 2.121 1.24583 1.68342 1.68342C1.24583 2.121 1 2.71449 1 3.33333L1 5.08333C1 5.70217 1.24583 6.29566 1.68342 6.73325C2.121 7.17083 2.71449 7.41667 3.33333 7.41667H5.08333C5.70217 7.41667 6.29566 7.17083 6.73325 6.73325C7.17083 6.29566 7.41667 5.70217 7.41667 5.08333V3.33333C7.41667 2.71449 7.17083 2.121 6.73325 1.68342C6.29566 1.24583 5.70217 1 5.08333 1ZM6.25 5.08333C6.25 5.39275 6.12708 5.6895 5.90829 5.90829C5.6895 6.12708 5.39275 6.25 5.08333 6.25H3.33333C3.02391 6.25 2.72717 6.12708 2.50838 5.90829C2.28958 5.6895 2.16667 5.39275 2.16667 5.08333V3.33333C2.16667 3.02391 2.28958 2.72717 2.50838 2.50838C2.72717 2.28958 3.02391 2.16667 3.33333 2.16667H5.08333C5.39275 2.16667 5.6895 2.28958 5.90829 2.50838C6.12708 2.72717 6.25 3.02391 6.25 3.33333V5.08333Z" fill="white"/>
<path d="M5.08333 8.58337H3.33333C2.71449 8.58337 2.121 8.82921 1.68342 9.26679C1.24583 9.70438 1 10.2979 1 10.9167L1 12.6667C1 13.2855 1.24583 13.879 1.68342 14.3166C2.121 14.7542 2.71449 15 3.33333 15H5.08333C5.70217 15 6.29566 14.7542 6.73325 14.3166C7.17083 13.879 7.41667 13.2855 7.41667 12.6667V10.9167C7.41667 10.2979 7.17083 9.70438 6.73325 9.26679C6.29566 8.82921 5.70217 8.58337 5.08333 8.58337ZM6.25 12.6667C6.25 12.9761 6.12708 13.2729 5.90829 13.4917C5.6895 13.7105 5.39275 13.8334 5.08333 13.8334H3.33333C3.02391 13.8334 2.72717 13.7105 2.50838 13.4917C2.28958 13.2729 2.16667 12.9761 2.16667 12.6667V10.9167C2.16667 10.6073 2.28958 10.3105 2.50838 10.0917C2.72717 9.87296 3.02391 9.75004 3.33333 9.75004H5.08333C5.39275 9.75004 5.6895 9.87296 5.90829 10.0917C6.12708 10.3105 6.25 10.6073 6.25 10.9167V12.6667Z" fill="white"/>
<path d="M12.6667 8.58337H10.9167C10.2979 8.58337 9.70438 8.82921 9.26679 9.26679C8.82921 9.70438 8.58337 10.2979 8.58337 10.9167V12.6667C8.58337 13.2855 8.82921 13.879 9.26679 14.3166C9.70438 14.7542 10.2979 15 10.9167 15H12.6667C13.2855 15 13.879 14.7542 14.3166 14.3166C14.7542 13.879 15 13.2855 15 12.6667V10.9167C15 10.2979 14.7542 9.70438 14.3166 9.26679C13.879 8.82921 13.2855 8.58337 12.6667 8.58337ZM13.8334 12.6667C13.8334 12.9761 13.7105 13.2729 13.4917 13.4917C13.2729 13.7105 12.9761 13.8334 12.6667 13.8334H10.9167C10.6073 13.8334 10.3105 13.7105 10.0917 13.4917C9.87296 13.2729 9.75004 12.9761 9.75004 12.6667V10.9167C9.75004 10.6073 9.87296 10.3105 10.0917 10.0917C10.3105 9.87296 10.6073 9.75004 10.9167 9.75004H12.6667C12.9761 9.75004 13.2729 9.87296 13.4917 10.0917C13.7105 10.3105 13.8334 10.6073 13.8334 10.9167V12.6667Z" fill="white"/>
<path d="M9.54167 4.8334H11.1667V6.45841C11.1667 6.60207 11.2238 6.73985 11.3253 6.84143C11.4269 6.94301 11.5647 7.00008 11.7084 7.00008C11.852 7.00008 11.9898 6.94301 12.0914 6.84143C12.193 6.73985 12.25 6.60207 12.25 6.45841V4.8334H13.875C14.0187 4.8334 14.1565 4.77633 14.2581 4.67475C14.3596 4.57316 14.4167 4.43539 14.4167 4.29173C14.4167 4.14807 14.3596 4.01029 14.2581 3.90871C14.1565 3.80713 14.0187 3.75006 13.875 3.75006H12.25V2.12504C12.25 1.98138 12.193 1.84361 12.0914 1.74203C11.9898 1.64044 11.852 1.58337 11.7084 1.58337C11.5647 1.58337 11.4269 1.64044 11.3253 1.74203C11.2238 1.84361 11.1667 1.98138 11.1667 2.12504V3.75006H9.54167C9.39801 3.75006 9.26023 3.80713 9.15865 3.90871C9.05707 4.01029 9 4.14807 9 4.29173C9 4.43539 9.05707 4.57316 9.15865 4.67475C9.26023 4.77633 9.39801 4.8334 9.54167 4.8334Z" fill="white"/>
</svg>
