<svg width="16" height="16" viewBox="0 0 16 16" fill="none" xmlns="http://www.w3.org/2000/svg">
<path d="M5.08324 1H3.33324C2.04481 1 1 2.04481 1 3.33324V5.08324C1 6.37196 2.04481 7.41649 3.33324 7.41649H5.08324C6.37196 7.41649 7.41649 6.37168 7.41649 5.08324V3.33324C7.41676 2.04481 6.37196 1 5.08324 1ZM6.25 5.08324C6.25 5.72746 5.72774 6.25 5.08324 6.25H3.33324C2.68902 6.25 2.16649 5.72774 2.16649 5.08324V3.33324C2.16649 2.68902 2.68875 2.16649 3.33324 2.16649H5.08324C5.72746 2.16649 6.25 2.68875 6.25 3.33324V5.08324Z" fill="white"/>
<path d="M5.08324 8.58325H3.33324C2.04453 8.58325 1 9.62806 1 10.9165V12.6665C1 13.9552 2.04481 14.9997 3.33324 14.9997H5.08324C6.37196 14.9997 7.41649 13.9549 7.41649 12.6665V10.9165C7.41649 9.62778 6.37168 8.58325 5.08324 8.58325ZM6.25 12.6668C6.25 13.311 5.72774 13.8335 5.08324 13.8335H3.33324C2.68902 13.8335 2.16649 13.3113 2.16649 12.6668V10.9168C2.16649 10.2726 2.68875 9.75001 3.33324 9.75001H5.08324C5.72746 9.75001 6.25 10.2723 6.25 10.9168V12.6668Z" fill="white"/>
<path d="M12.6667 8.58325H10.9167C9.62803 8.58325 8.5835 9.62806 8.5835 10.9165V12.6665C8.5835 13.9552 9.6283 14.9997 10.9167 14.9997H12.6667C13.9555 14.9997 15 13.9549 15 12.6665V10.9165C15 9.62778 13.9552 8.58325 12.6667 8.58325ZM13.8332 12.6668C13.8332 13.311 13.311 13.8335 12.6665 13.8335H10.9165C10.2722 13.8335 9.74971 13.3113 9.74971 12.6668V10.9168C9.74971 10.2726 10.272 9.75001 10.9165 9.75001H12.6665C13.3107 9.75001 13.8332 10.2723 13.8332 10.9168V12.6668Z" fill="white"/>
<path d="M13.2687 3.45383V2.76859C13.2687 1.79133 12.4773 1 11.5001 1C10.5228 1 9.73147 1.79133 9.73147 2.76859V3.45383C9.20537 3.76336 8.84717 4.325 8.84717 4.97934V5.86364C8.84717 6.83625 9.64314 7.63223 10.6158 7.63223H12.3844C13.3616 7.63223 14.153 6.83625 14.153 5.86364V4.97934C14.153 4.325 13.7947 3.76336 13.2687 3.45383ZM10.6158 2.76859C10.6158 2.28215 11.0136 1.8843 11.5001 1.8843C11.9865 1.8843 12.3844 2.28215 12.3844 2.76859V3.21074H10.6158V2.76859ZM13.2687 5.86364C13.2687 6.35008 12.8752 6.74793 12.3844 6.74793H10.6158C10.1293 6.74793 9.73147 6.35008 9.73147 5.86364V4.97934C9.73147 4.49289 10.1293 4.09504 10.6158 4.09504H12.3844C12.8752 4.09504 13.2687 4.49289 13.2687 4.97934V5.86364ZM11.5001 4.75813C11.1331 4.75813 10.837 5.05426 10.837 5.42121C10.837 5.78817 11.1331 6.0843 11.5001 6.0843C11.867 6.0843 12.1631 5.78817 12.1631 5.42121C12.1631 5.05426 11.867 4.75813 11.5001 4.75813Z" fill="white"/>
</svg>
