<svg width="18" height="18" viewBox="0 0 18 18" fill="none" xmlns="http://www.w3.org/2000/svg">
<path d="M15.9155 10.0913L14.6683 5.60412C14.3028 4.28956 13.5083 3.13492 12.4112 2.32373C11.3141 1.51253 9.97728 1.09134 8.61331 1.1271C7.24934 1.16286 5.93647 1.65352 4.88337 2.52109C3.83027 3.38866 3.09739 4.58335 2.80122 5.91525L1.83565 10.2574C1.729 10.7371 1.73146 11.2348 1.84287 11.7135C1.95427 12.1922 2.17177 12.6397 2.47931 13.0231C2.78684 13.4065 3.17656 13.716 3.61969 13.9286C4.06283 14.1412 4.54805 14.2516 5.03955 14.2516H5.77078C5.92144 14.9935 6.32395 15.6605 6.91013 16.1396C7.4963 16.6187 8.23009 16.8805 8.98716 16.8805C9.74422 16.8805 10.478 16.6187 11.0642 16.1396C11.6504 15.6605 12.0529 14.9935 12.2035 14.2516H12.7536C13.2596 14.2516 13.7587 14.1347 14.212 13.9099C14.6652 13.6851 15.0604 13.3585 15.3666 12.9557C15.6728 12.5529 15.8817 12.0848 15.9771 11.5879C16.0724 11.091 16.0509 10.5788 15.9155 10.0913ZM8.98716 15.5644C8.58133 15.5627 8.18593 15.4357 7.85506 15.2007C7.52419 14.9657 7.274 14.6342 7.13873 14.2516H10.8356C10.7003 14.6342 10.4501 14.9657 10.1193 15.2007C9.78838 15.4357 9.39298 15.5627 8.98716 15.5644ZM14.3211 12.1609C14.1382 12.4036 13.9012 12.6002 13.629 12.7352C13.3568 12.8703 13.0568 12.94 12.7529 12.9388H5.03955C4.74469 12.9387 4.45359 12.8724 4.18777 12.7448C3.92194 12.6172 3.68815 12.4316 3.50368 12.2015C3.3192 11.9715 3.18873 11.703 3.12191 11.4158C3.05509 11.1286 3.05362 10.8301 3.11761 10.5422L4.08252 6.19947C4.31511 5.1533 4.89075 4.21491 5.71791 3.53346C6.54508 2.85202 7.5763 2.46663 8.64765 2.43856C9.71899 2.41049 10.769 2.74136 11.6307 3.37856C12.4924 4.01577 13.1164 4.92274 13.4034 5.95529L14.6506 10.4425C14.733 10.7348 14.7461 11.0423 14.6889 11.3406C14.6317 11.6389 14.5058 11.9198 14.3211 12.1609Z" fill="#2E3032"/>
</svg>
