<svg width="31" height="31" viewBox="0 0 31 31" fill="none" xmlns="http://www.w3.org/2000/svg">
<g clip-path="url(#clip0_808_794)">
<path d="M18.4756 21.1035H12.462V25.0637H18.4756V21.1035Z" fill="#FBBCA0"/>
<g style="mix-blend-mode:multiply">
<path d="M13.9204 23.9695C14.8267 24.3216 15.8199 24.5328 16.7952 24.5416C17.3533 24.5474 17.9235 24.477 18.4756 24.3832V21.1035H12.462V23.1511C12.8851 23.5148 13.4223 23.7759 13.9204 23.9666V23.9695Z" fill="#E6E7E8"/>
</g>
<path d="M21.7494 13.7697C21.7674 13.6259 22.0135 13.3912 22.1215 13.312C22.3586 13.136 22.5986 13.3179 22.6707 13.5467C22.7337 13.7521 22.7397 13.9838 22.7547 14.195C22.7907 14.7143 22.7127 15.2247 22.4786 15.6941C22.3226 16.008 22.0765 16.2632 21.7884 16.4568C21.7884 16.4568 21.4763 16.6123 21.4133 16.2544C21.4133 16.2544 21.7524 13.7697 21.7524 13.7667L21.7494 13.7697Z" fill="#FBBCA0"/>
<path d="M21.6984 14.0806C21.7134 13.9779 21.8874 13.8107 21.9625 13.7521C22.1335 13.6259 22.3045 13.755 22.3556 13.9193C22.4006 14.066 22.4036 14.2302 22.4156 14.3857C22.4426 14.7583 22.3856 15.122 22.2175 15.4564C22.1065 15.6794 21.9294 15.8642 21.7224 16.0021C21.7224 16.0021 21.5003 16.1136 21.4553 15.8583C21.4553 15.8583 21.6984 14.0806 21.6984 14.0777V14.0806Z" fill="#DDA78F"/>
<path d="M9.03805 13.7697C9.02004 13.6259 8.77398 13.3912 8.66595 13.312C8.42889 13.136 8.18883 13.3179 8.11681 13.5467C8.05379 13.7521 8.04779 13.9838 8.03278 14.195C7.99677 14.7143 8.0748 15.2247 8.30886 15.6941C8.4649 16.008 8.70796 16.2632 8.99904 16.4568C8.99904 16.4568 9.31112 16.6123 9.37414 16.2544C9.37414 16.2544 9.03505 13.7697 9.03505 13.7667L9.03805 13.7697Z" fill="#FBBCA0"/>
<path d="M9.08614 14.0806C9.07114 13.9779 8.89709 13.8107 8.82207 13.7521C8.65103 13.6259 8.47998 13.755 8.42897 13.9193C8.38396 14.066 8.38095 14.2302 8.36895 14.3857C8.34194 14.7583 8.39896 15.122 8.567 15.4564C8.67803 15.6794 8.85508 15.8642 9.06213 16.0021C9.06213 16.0021 9.28419 16.1136 9.32921 15.8583C9.32921 15.8583 9.08614 14.0806 9.08614 14.0777V14.0806Z" fill="#DDA78F"/>
<path d="M21.9386 14.2361C21.9386 15.8759 21.6565 17.5334 20.8823 18.9532C20.2071 20.1941 19.1929 21.1886 18.1066 21.9806C17.2243 22.6231 16.2791 23.374 15.1598 23.2831C13.9955 23.1863 13.0892 22.1948 12.237 21.4203C11.0397 20.329 10.0975 18.9767 9.5153 17.3838C9.15821 16.401 8.99316 15.2951 8.99316 14.239C8.99316 8.93815 11.8919 5.60566 15.4659 5.60566C19.0398 5.60566 21.9386 8.93815 21.9386 14.239V14.2361Z" fill="#FBBCA0"/>
<path d="M25.9717 26.8561L18.4758 24.9405H12.4622L4.9662 26.8561C4.9662 26.8561 1.49428 28.1146 1.10718 32.0954H29.8278C29.4406 28.1146 25.9687 26.8561 25.9687 26.8561H25.9717Z" fill="#FBBCA0"/>
<path d="M25.9717 26.8561L18.4758 24.9405H12.4622L4.9662 26.8561C4.9662 26.8561 1.49428 28.1146 1.10718 32.0954H29.8278C29.4406 28.1146 25.9687 26.8561 25.9687 26.8561H25.9717Z" fill="white"/>
<path d="M25.9716 26.8561L20.4261 25.4392L15.4718 32.0983L10.5715 25.4275L4.97205 26.8591C4.97205 26.8591 1.50014 28.1176 1.11304 32.0983H29.8336C29.4465 28.1176 25.9746 26.8591 25.9746 26.8591L25.9716 26.8561Z" fill="white"/>
<path d="M14.8115 28.76L13.4312 32.0954H17.3562L16.0088 28.76H14.8115Z" fill="#14BAAB"/>
<path d="M15.3783 25.0051L13.6199 27.3108L14.8412 28.7688L15.4414 28.76L16.0385 28.7512L17.2118 27.2551L15.3783 25.0051Z" fill="#14BAAB"/>
<g style="mix-blend-mode:multiply">
<path d="M16.5522 27.0087C16.3271 27.4428 15.91 27.9386 15.3399 27.8154C14.7517 27.6892 14.4847 27.1465 14.6197 26.595C14.7517 26.0582 15.1058 25.6094 15.3039 25.1019L13.6174 27.3108L14.8388 28.7688L16.0361 28.7482L17.2094 27.2521L16.7142 26.6449C16.6662 26.7681 16.6122 26.8913 16.5522 27.0087Z" fill="#D1D3D4"/>
</g>
<path d="M15.4689 32.0954L10.5686 25.4246L6.64954 26.4278L11.6579 29.8747L10.3705 30.4292L12.6871 32.0954H15.4689Z" fill="white"/>
<path d="M15.4689 32.1071L20.3722 25.4334L24.2912 26.4366L19.2829 29.8835L20.5672 30.438L18.2536 32.1071H15.4689Z" fill="white"/>
<path d="M9.51233 25.0814L12.4531 23.7319L15.4479 24.9552L18.4457 23.7319L21.5875 25.0814L17.1463 27.9885L15.4479 25.6123L13.6204 27.9885L9.51233 25.0814Z" fill="#E2E3E4"/>
<path d="M19.2587 21.0213C19.2587 21.0213 20.8851 19.5194 21.2422 18.1934C21.2422 18.1934 19.3247 19.8831 18.6555 19.7042L19.2557 21.0213H19.2587Z" fill="#1C1B1B"/>
<path d="M12.1318 21.4702C12.1318 21.4702 10.2473 19.8919 9.7312 17.9147C9.7312 17.9147 11.8798 20.3408 12.5489 20.1589L12.1318 21.4702Z" fill="#1C1B1B"/>
<path d="M16.6152 18.8711C17.6805 18.8857 18.2597 19.2436 18.2597 19.2436C19.1929 19.6749 19.433 20.8453 19.433 20.8453C19.433 20.8453 18.7908 21.5406 18.0046 22.0334C16.2311 23.4708 15.4179 23.289 15.4179 23.289C14.4097 23.289 13.7015 22.6729 13.7015 22.6729L12.042 21.4027C11.835 19.9594 13.1253 19.2436 13.1253 19.2436C13.8995 18.8769 14.0376 18.9239 14.0376 18.9239C14.0376 18.9239 15.1959 18.7919 15.4779 19.2407C15.4779 19.2407 15.769 18.8681 16.5582 18.8681" fill="#1E0500"/>
<path d="M15.625 20.0591C15.625 20.0591 14.8958 19.7042 13.8365 20.0855C13.8365 20.0855 15.445 21.7518 17.2695 20.1061C17.2695 20.1061 16.2912 19.6602 15.622 20.0591H15.625Z" fill="#FBBCA0"/>
<path d="M21.9956 6.41825C23.4539 5.37978 23.2949 3.78394 23.2949 3.78394C22.4457 4.69626 21.2033 4.81361 21.2033 4.81361C22.4907 4.05969 21.8515 2.48732 21.8515 2.48732C21.4494 3.36738 19.6609 3.87194 19.6609 3.87194C20.5282 3.30577 19.988 2.01795 19.988 2.01795C19.3819 3.02415 17.5694 3.46418 17.5694 3.46418C18.7607 2.80414 18.8867 1.85954 18.8867 1.85954C17.8245 2.77187 14.9317 3.2119 14.9317 3.2119C14.9317 3.2119 11.7418 3.49645 10.9496 6.08676C8.61803 6.41531 8.59702 10.27 8.75906 12.3498L8.9061 14.8668H9.42524C9.19418 13.6611 9.42524 12.0272 9.42524 12.0272C9.78233 10.8567 9.96538 10.1644 10.1934 9.67446C10.7456 8.49518 11.6068 8.13729 12.156 8.03169L12.6781 7.99355C14.9617 7.66793 15.6339 9.25203 15.6339 9.25203C15.988 8.33971 17.1793 8.11969 17.1793 8.11969C20.6512 7.66793 21.1493 10.3521 21.1493 10.3521L21.5424 12.0594C21.5964 12.6285 21.6895 13.9457 21.5124 14.8668H22.0316L22.1786 12.3498C22.1816 12.2706 22.1816 12.2032 22.1786 12.1416C22.4397 10.7393 22.6707 8.45118 21.9926 6.41825H21.9956Z" fill="#1C1B1B"/>
</g>
<defs>
<clipPath id="clip0_808_794">
<rect width="31" height="31" fill="white"/>
</clipPath>
</defs>
</svg>
