<svg width="16" height="16" viewBox="0 0 16 16" fill="none" xmlns="http://www.w3.org/2000/svg">
<path d="M12.0833 1H6.83333C5.22508 1 3.91667 2.30842 3.91667 3.91667V4.5H3.625C2.17775 4.5 1 5.67775 1 7.125V12.9583C1 14.0836 1.91525 14.9994 3.04108 15H12.0833C13.6916 15 15 13.6916 15 12.0833V3.91667C15 2.30842 13.6916 1 12.0833 1ZM3.91667 12.9583C3.91667 13.4407 3.52408 13.8333 3.04167 13.8333C2.55925 13.8333 2.16667 13.4407 2.16667 12.9583V7.125C2.16667 6.32117 2.82117 5.66667 3.625 5.66667H3.91667V12.9583ZM13.8333 12.0833C13.8333 13.0482 13.0482 13.8333 12.0833 13.8333H4.88617C5.01217 13.5679 5.08333 13.2716 5.08333 12.9583V3.91667C5.08333 2.95183 5.8685 2.16667 6.83333 2.16667H12.0833C13.0482 2.16667 13.8333 2.95183 13.8333 3.91667V12.0833ZM12.6667 5.08333C12.6667 5.40533 12.4053 5.66667 12.0833 5.66667H10.3333C10.0113 5.66667 9.75 5.40533 9.75 5.08333C9.75 4.76133 10.0113 4.5 10.3333 4.5H12.0833C12.4053 4.5 12.6667 4.76133 12.6667 5.08333ZM12.6667 7.41667C12.6667 7.73867 12.4053 8 12.0833 8H6.83333C6.51133 8 6.25 7.73867 6.25 7.41667C6.25 7.09467 6.51133 6.83333 6.83333 6.83333H12.0833C12.4053 6.83333 12.6667 7.09467 12.6667 7.41667ZM12.6667 9.75C12.6667 10.072 12.4053 10.3333 12.0833 10.3333H6.83333C6.51133 10.3333 6.25 10.072 6.25 9.75C6.25 9.428 6.51133 9.16667 6.83333 9.16667H12.0833C12.4053 9.16667 12.6667 9.428 12.6667 9.75ZM12.6667 12.0833C12.6667 12.4053 12.4053 12.6667 12.0833 12.6667H6.83333C6.51133 12.6667 6.25 12.4053 6.25 12.0833C6.25 11.7613 6.51133 11.5 6.83333 11.5H12.0833C12.4053 11.5 12.6667 11.7613 12.6667 12.0833ZM6.25 5.08333V3.91667C6.25 3.59467 6.51133 3.33333 6.83333 3.33333H8C8.322 3.33333 8.58333 3.59467 8.58333 3.91667V5.08333C8.58333 5.40533 8.322 5.66667 8 5.66667H6.83333C6.51133 5.66667 6.25 5.40533 6.25 5.08333Z" fill="white"/>
</svg>
