<svg width="16" height="16" viewBox="0 0 16 16" fill="none" xmlns="http://www.w3.org/2000/svg">
<path fill-rule="evenodd" clip-rule="evenodd" d="M13.1626 8.959L13.4216 9.10833L13.4222 9.10775C13.8244 9.33981 14.118 9.72217 14.2383 10.1707C14.3587 10.6192 14.2959 11.0972 14.0638 11.4994C13.8318 11.9017 13.4494 12.1952 13.0009 12.3156C12.5524 12.4359 12.0744 12.3731 11.6722 12.1411L11.4114 11.9906C10.9215 12.4102 10.3583 12.7358 9.75009 12.9507V13.25C9.75009 13.7141 9.56571 14.1592 9.23752 14.4874C8.90934 14.8156 8.46422 15 8.00009 15C7.53596 15 7.09084 14.8156 6.76265 14.4874C6.43446 14.1592 6.25009 13.7141 6.25009 13.25V12.9507C5.64166 12.7366 5.07803 12.4119 4.58759 11.9929L4.328 12.1428C3.92576 12.3749 3.4478 12.4377 2.99928 12.3173C2.55075 12.197 2.1684 11.9034 1.93634 11.5012C1.70427 11.0989 1.6415 10.621 1.76184 10.1724C1.88217 9.72392 2.17576 9.34156 2.578 9.1095L2.837 8.96017C2.7204 8.32576 2.7204 7.67541 2.837 7.041L2.578 6.89167C2.17576 6.6596 1.88217 6.27725 1.76184 5.82873C1.6415 5.3802 1.70427 4.90224 1.93634 4.5C2.1684 4.09775 2.55075 3.80417 2.99928 3.68384C3.4478 3.5635 3.92576 3.62627 4.328 3.85833L4.58875 4.00942C5.07866 3.58977 5.6419 3.26425 6.25009 3.04925V2.75C6.25009 2.28587 6.43446 1.84075 6.76265 1.51256C7.09084 1.18437 7.53596 1 8.00009 1C8.46422 1 8.90934 1.18437 9.23752 1.51256C9.56571 1.84075 9.75009 2.28587 9.75009 2.75V3.04925C10.3583 3.26348 10.9217 3.5882 11.412 4.00708L11.6716 3.85717C11.8708 3.74226 12.0906 3.66771 12.3186 3.63777C12.5466 3.60783 12.7782 3.62309 13.0003 3.68267C13.2224 3.74225 13.4306 3.845 13.613 3.98504C13.7953 4.12507 13.9483 4.29966 14.0633 4.49883C14.1782 4.698 14.2527 4.91786 14.2827 5.14584C14.3126 5.37383 14.2973 5.60547 14.2378 5.82756C14.1782 6.04965 14.0754 6.25782 13.9354 6.4402C13.7953 6.62258 13.6208 6.77559 13.4216 6.8905L13.1626 7.03983C13.2792 7.67424 13.2792 8.32459 13.1626 8.959ZM11.9353 9.09317C12.1328 8.37738 12.1328 7.62145 11.9353 6.90567V6.90625C11.9013 6.78206 11.9093 6.65012 11.9582 6.53099C12.0071 6.41186 12.0939 6.31224 12.2053 6.24767L12.8377 5.8825C12.9045 5.84448 12.9632 5.7936 13.0104 5.7328C13.0575 5.672 13.0922 5.60248 13.1123 5.52824C13.1325 5.45399 13.1377 5.3765 13.1278 5.30021C13.1179 5.22392 13.093 5.15035 13.0545 5.08373C13.0161 5.0171 12.9648 4.95875 12.9037 4.91202C12.8426 4.86529 12.7728 4.83111 12.6985 4.81144C12.6241 4.79178 12.5466 4.78702 12.4703 4.79744C12.3941 4.80786 12.3207 4.83326 12.2543 4.87217L11.622 5.23792C11.5099 5.30282 11.3795 5.32859 11.2511 5.31116C11.1228 5.29374 11.0039 5.23411 10.9133 5.14167C10.3943 4.61077 9.74018 4.23176 9.0215 4.04558C8.89611 4.01334 8.785 3.9403 8.70568 3.83796C8.62637 3.73563 8.58336 3.60981 8.58342 3.48033V2.75C8.58342 2.59529 8.52196 2.44692 8.41257 2.33752C8.30317 2.22812 8.1548 2.16667 8.00009 2.16667C7.84538 2.16667 7.697 2.22812 7.58761 2.33752C7.47821 2.44692 7.41675 2.59529 7.41675 2.75V3.48033C7.41734 3.61021 7.37456 3.73656 7.29521 3.83938C7.21585 3.94219 7.10445 4.01558 6.97867 4.04792C6.26025 4.23343 5.60614 4.61162 5.08692 5.14167C4.99598 5.2336 4.87708 5.29271 4.74889 5.30971C4.62071 5.32671 4.49051 5.30063 4.37875 5.23558L3.74525 4.86925C3.6112 4.79189 3.4519 4.77096 3.30241 4.81106C3.15292 4.85115 3.02548 4.94899 2.94813 5.08304C2.87077 5.2171 2.84984 5.37639 2.88993 5.52588C2.93003 5.67537 3.02786 5.80281 3.16192 5.88017L3.79425 6.24533C3.90585 6.30974 3.99299 6.40928 4.04206 6.52842C4.09113 6.64756 4.09937 6.7796 4.0655 6.90392C3.86796 7.6197 3.86796 8.37563 4.0655 9.09142C4.1 9.216 4.09213 9.34851 4.04314 9.46814C3.99415 9.58777 3.90681 9.68773 3.79484 9.75233L3.1625 10.1175C3.09563 10.1555 3.03693 10.2064 2.9898 10.2672C2.94266 10.328 2.90802 10.3975 2.88786 10.4718C2.86771 10.546 2.86244 10.6235 2.87235 10.6998C2.88227 10.7761 2.90717 10.8497 2.94564 10.9163C2.98411 10.9829 3.03537 11.0413 3.09648 11.088C3.15759 11.1347 3.22734 11.1689 3.30172 11.1886C3.37609 11.2082 3.45362 11.213 3.52984 11.2026C3.60606 11.1921 3.67947 11.1667 3.74584 11.1278L4.37817 10.7621C4.49023 10.6972 4.6207 10.6714 4.74903 10.6888C4.87735 10.7063 4.99623 10.7659 5.08692 10.8583C5.60569 11.3891 6.25962 11.7681 6.97809 11.9544C7.10348 11.9867 7.21459 12.0597 7.29391 12.162C7.37322 12.2644 7.41623 12.3902 7.41617 12.5197V13.25C7.41617 13.4047 7.47763 13.5531 7.58702 13.6625C7.69642 13.7719 7.84479 13.8333 7.9995 13.8333C8.15421 13.8333 8.30259 13.7719 8.41198 13.6625C8.52138 13.5531 8.58284 13.4047 8.58284 13.25V12.5191C8.58277 12.3896 8.62579 12.2638 8.7051 12.1615C8.78441 12.0591 8.89552 11.9861 9.02092 11.9538C9.73934 11.7683 10.3935 11.3901 10.9127 10.8601C11.0034 10.7676 11.1222 10.708 11.2506 10.6906C11.3789 10.6732 11.5094 10.6989 11.6214 10.7638L12.2549 11.1302C12.389 11.2075 12.5483 11.2285 12.6978 11.1884C12.8473 11.1483 12.9747 11.0504 13.052 10.9164C13.1294 10.7823 13.1503 10.623 13.1102 10.4735C13.0701 10.324 12.9723 10.1966 12.8383 10.1193L12.2059 9.75408C12.094 9.68948 12.0066 9.58952 11.9576 9.46989C11.9086 9.35026 11.9008 9.21775 11.9353 9.09317ZM6.70371 6.0599C7.08743 5.80351 7.53856 5.66666 8.00004 5.66666C8.61888 5.66666 9.21238 5.91249 9.64996 6.35008C10.0875 6.78766 10.3334 7.38116 10.3334 8C10.3334 8.46149 10.1965 8.91261 9.94014 9.29633C9.68375 9.68004 9.31933 9.97911 8.89297 10.1557C8.46661 10.3323 7.99746 10.3785 7.54483 10.2885C7.09221 10.1985 6.67645 9.97623 6.35013 9.64991C6.02381 9.32359 5.80158 8.90783 5.71155 8.45521C5.62151 8.00258 5.66772 7.53343 5.84433 7.10707C6.02093 6.68071 6.32 6.31629 6.70371 6.0599ZM7.35188 8.97004C7.54374 9.09824 7.7693 9.16666 8.00004 9.16666C8.30946 9.16666 8.60621 9.04375 8.825 8.82495C9.0438 8.60616 9.16671 8.30942 9.16671 8C9.16671 7.76925 9.09829 7.54369 8.97009 7.35183C8.8419 7.15997 8.65969 7.01044 8.44651 6.92214C8.23333 6.83383 7.99875 6.81073 7.77244 6.85575C7.54613 6.90076 7.33825 7.01188 7.17509 7.17504C7.01193 7.3382 6.90081 7.54608 6.85579 7.77239C6.81078 7.9987 6.83388 8.23328 6.92218 8.44646C7.01049 8.65964 7.16002 8.84185 7.35188 8.97004Z" fill="white"/>
</svg>
