<svg width="16" height="16" viewBox="0 0 16 16" fill="none" xmlns="http://www.w3.org/2000/svg">
<path d="M11.8769 4.93155C11.7673 4.9003 11.6673 4.84214 11.5859 4.76237C11.5046 4.68259 11.4445 4.58374 11.411 4.47481C11.2255 3.84605 10.9144 3.26146 10.4964 2.75643C10.0785 2.25139 9.56241 1.8364 8.97944 1.53657C8.39648 1.23675 7.75874 1.05831 7.10482 1.01207C6.4509 0.965831 5.79439 1.05274 5.17504 1.26755C4.55568 1.48236 3.98634 1.82059 3.50147 2.26179C3.0166 2.70298 2.62629 3.23797 2.35415 3.83436C2.08202 4.43076 1.93371 5.07617 1.91821 5.73154C1.90271 6.38691 2.02033 7.03861 2.26397 7.64721C2.31994 7.77528 2.33199 7.91827 2.29825 8.05391C2.2645 8.18955 2.18685 8.31022 2.07739 8.39714C1.59504 8.75515 1.21845 9.2369 0.98747 9.79141C0.756495 10.3459 0.679732 10.9526 0.765305 11.5471C0.898848 12.3509 1.31614 13.0802 1.94145 13.6026C2.56676 14.1249 3.35863 14.4058 4.17335 14.3942H7.39421C7.55487 14.3942 7.70894 14.3304 7.82255 14.2168C7.93615 14.1032 7.99997 13.9491 7.99997 13.7885C7.99997 13.6278 7.93615 13.4737 7.82255 13.3601C7.70894 13.2465 7.55487 13.1827 7.39421 13.1827H4.17335C3.65013 13.1954 3.13968 13.0202 2.73451 12.689C2.32933 12.3577 2.05624 11.8922 1.96472 11.3769C1.90669 10.9981 1.95372 10.6107 2.1007 10.2568C2.24768 9.90296 2.48896 9.59621 2.79826 9.37C3.12314 9.12719 3.35816 8.78333 3.46638 8.39244C3.5746 8.00154 3.5499 7.58577 3.39615 7.21045C3.09215 6.40763 3.07651 5.52413 3.35193 4.71106C3.57194 4.07414 3.96592 3.51156 4.48924 3.08706C5.01257 2.66256 5.64431 2.39309 6.31291 2.30919C6.468 2.28923 6.6242 2.27911 6.78057 2.2789C7.56386 2.27632 8.32691 2.52753 8.95548 2.99491C9.58405 3.4623 10.0443 4.12072 10.2674 4.87158C10.3544 5.15773 10.5113 5.41773 10.7238 5.62816C10.9364 5.83859 11.1979 5.99286 11.4849 6.07706C12.1873 6.28479 12.8095 6.70213 13.2681 7.27322C13.7268 7.8443 14 8.54186 14.0513 9.27253C14.1026 10.0032 13.9294 10.7321 13.555 11.3616C13.1805 11.9911 12.6227 12.4912 11.9562 12.795C11.8576 12.8455 11.7751 12.9227 11.7183 13.0178C11.6614 13.1129 11.6324 13.2221 11.6346 13.3329C11.6334 13.4332 11.6574 13.5321 11.7044 13.6206C11.7514 13.7092 11.8199 13.7845 11.9036 13.8397C11.9873 13.8948 12.0835 13.9281 12.1834 13.9364C12.2833 13.9447 12.3837 13.9278 12.4754 13.8872C14.9796 12.6835 16.3402 9.51721 14.22 6.45809C13.6362 5.69659 12.8093 5.15788 11.8769 4.93155Z" fill="white"/>
<path d="M12.0628 10.5821C12.1764 10.4685 12.2402 10.3145 12.2402 10.1539C12.2402 9.99323 12.1764 9.83918 12.0628 9.72558L11.1021 8.76484C10.7613 8.42415 10.2991 8.23276 9.81723 8.23276C9.33535 8.23276 8.8732 8.42415 8.5324 8.76484L7.57166 9.72558C7.46131 9.83983 7.40025 9.99285 7.40163 10.1517C7.40301 10.3105 7.46672 10.4624 7.57904 10.5748C7.69135 10.6871 7.84328 10.7508 8.00211 10.7522C8.16094 10.7535 8.31396 10.6925 8.42821 10.5821L9.21147 9.79888V14.3942C9.21147 14.5549 9.27529 14.709 9.38889 14.8226C9.5025 14.9362 9.65657 15 9.81723 15C9.97789 15 10.132 14.9362 10.2456 14.8226C10.3592 14.709 10.423 14.5549 10.423 14.3942V9.79888L11.2063 10.5821C11.3199 10.6957 11.4739 10.7595 11.6345 10.7595C11.7952 10.7595 11.9492 10.6957 12.0628 10.5821Z" fill="white"/>
</svg>
